<!-- Generated by IcoMoon.io -->
<svg version="1.1" xmlns="http://www.w3.org/2000/svg" width="39" height="32" viewBox="0 0 39 32">
<title>vumc</title>
<path d="M17.545 2.073v-2.073h-17.451c-0.007 0.687-0.011 1.371-0.018 2.058 1.018 0.124 2.149 0.055 3.007 0.709 0.924 0.72 1.436 1.822 1.891 2.869 3.433 8.76 6.876 17.52 10.324 26.276 1.246-0.005 2.491-0.005 3.737-0.004l1.068 0.001c1.246 0.001 2.491 0.001 3.737-0.004 3.505-8.902 6.905-17.847 10.465-26.727 0.662-1.938 2.516-3.298 4.604-3.029v-2.149h-17.367c0.004 0.691 0.004 1.385 0 2.076 0.92 0.025 1.858-0.004 2.756 0.229 0.538 0.142 1.011 0.665 0.753 1.24-0.702 1.327-2.055 2.291-2.396 3.811-0.175 0.676 0.102 1.72 1.004 1.469 1.24-0.658 2.218-1.771 3.582-2.2 0.615 0.145 1.022 0.753 0.945 1.375-0.364 2.647-3.985 3.76-3.538 6.655 1.102 0.371 1.88-0.673 2.895-0.796 0.829 0.298 0.564 1.331 0.273 1.935-0.938 1.785-2.902 2.916-3.458 4.927-0.36 1.313 0.349 2.56 0.724 3.778-0.309-0.022-0.927-0.069-1.236-0.095-0.582-1.145-0.862-2.415-1.385-3.585-0.298-0.931-1.371-1.153-2.189-1.407-1.211-0.273-1.887 1.465-3.058 1.233-0.582-0.567 0.255-1.291 0.367-1.924 0.604-0.971 0.055-2.564 1.295-3.047 0.455 0.778 0.749 1.636 1.131 2.455 0.411 0.509 1.193 0.48 1.753 0.76-0.567-1.451-0.967-2.985-1.782-4.324-1.433-2.036-4.335-2.084-5.865-3.989-0.549-0.6-0.716-1.818 0.185-2.175 1.447-0.418 2.76 1.058 4.207 0.807 0.596-0.462 0.233-1.24-0.055-1.767-1.047-1.527-3.036-2.171-3.876-3.873-0.287-0.444-0.040-1.113 0.462-1.251 0.811-0.255 1.676-0.207 2.513-0.244zM13.902 18.098c-0.429-1.051 0.418-2.145 1.411-2.425 0.745-0.058 1.465 0.211 2.193 0.345-0.033 1.364-0.516 2.644-1.142 3.836-0.895-0.425-2.185-0.636-2.462-1.756z"></path>
</svg>
