<!-- Generated by IcoMoon.io -->
<svg version="1.1" xmlns="http://www.w3.org/2000/svg" width="32" height="32" viewBox="0 0 32 32">
<title>esmart</title>
<path d="M13.267 29.954c-8.895-2.161-13.615-12.106-9.601-20.229 1.524-3.083 3.645-5.189 6.793-6.745 2.411-1.192 2.55-1.22 6.021-1.22s3.61 0.028 6.021 1.22c3.148 1.556 5.269 3.662 6.793 6.745 4.092 8.28-0.902 18.399-10.030 20.318-2.11 0.444-3.913 0.417-5.997-0.090zM21.617 24.304c1.705-0.845 2.018-1.407 1.315-2.368-0.437-0.598-0.485-0.595-2.169 0.149-4.429 1.957-9.269 0.071-9.791-3.814-0.216-1.608-0.151-1.622 7.712-1.627l6.364-0.004-0.166-2.068c-0.318-3.959-2.934-7.116-6.513-7.859-4.196-0.871-8.020 0.907-9.992 4.647-0.73 1.384-0.845 1.991-0.85 4.501-0.005 2.602 0.093 3.096 0.961 4.8 0.708 1.391 1.382 2.178 2.517 2.94 2.12 1.423 3.114 1.672 6.293 1.573 2.143-0.066 3.080-0.255 4.32-0.869zM10.76 14.229c-0.245-0.639 0.573-2.625 1.495-3.626 2.29-2.488 7.115-2.075 8.867 0.76 0.389 0.629 0.727 1.605 0.752 2.17l0.046 1.027-5.483 0.087c-4.753 0.076-5.509 0.020-5.677-0.418z"></path>
<path d="M12.8 29.567c-6.874-1.839-11.638-9.419-10.127-16.112 0.706-3.127 1.662-4.957 3.763-7.203 2.157-2.306 4.301-3.484 7.676-4.216 2.26-0.49 2.595-0.49 4.799 0.005 3.347 0.751 5.479 1.931 7.612 4.212 3.16 3.378 4.565 7.584 3.884 11.622-1.438 8.527-9.48 13.867-17.608 11.693zM20.96 24.933c1.497-0.658 2.72-1.576 2.72-2.040 0-0.233-0.272-0.759-0.605-1.169l-0.605-0.747-1.692 0.791c-1.268 0.593-2.224 0.791-3.82 0.79-2.691-0.001-4.367-0.984-5.433-3.186-1.157-2.389-1.089-2.413 6.957-2.413h6.885l-0.162-2.020c-0.424-5.288-3.866-8.631-8.886-8.631-3.784 0-6.813 1.973-8.433 5.492-0.524 1.138-0.682 2.106-0.684 4.199-0.003 2.338 0.123 2.977 0.897 4.553 1.035 2.108 2.574 3.507 4.86 4.418 1.282 0.511 2.141 0.613 4.32 0.511 1.496-0.070 3.152-0.317 3.68-0.549zM11.173 14.208c-0.36-0.434-0.305-0.739 0.361-1.993 1.088-2.051 2.505-2.934 4.705-2.934 2.314 0 3.759 0.73 4.732 2.39 0.908 1.549 1.010 2.577 0.283 2.856-0.278 0.107-2.565 0.194-5.081 0.194-3.804 0-4.646-0.086-5-0.512z"></path>
<path d="M11.973 29.134c-6.283-2.236-10.277-8.852-9.186-15.219 1.182-6.9 6.994-11.988 13.693-11.988s12.511 5.088 13.693 11.988c0.881 5.142-1.773 10.973-6.299 13.841-3.195 2.025-8.392 2.627-11.901 1.378zM21.183 24.965c1.697-0.645 2.824-1.471 2.805-2.055-0.006-0.193-0.352-0.767-0.768-1.275l-0.756-0.925-1.695 0.845c-3.985 1.986-9.112 0.213-9.349-3.232l-0.061-0.884 14.080-0.32-0.059-2.046c-0.117-4.058-2.792-7.679-6.427-8.697-2.854-0.8-6.536 0.051-8.926 2.062-2.236 1.881-3.478 5.86-2.927 9.374 0.344 2.193 0.948 3.428 2.454 5.015 2.812 2.962 7.291 3.786 11.628 2.138zM11.2 13.647c0-0.911 1.13-2.639 2.283-3.493 2.813-2.083 7.951 0.090 7.955 3.366l0.001 0.88h-10.24z"></path>
<path d="M13.92 29.569c-6.153-1.514-10.206-6.027-11.196-12.466-0.262-1.703 0.521-5.383 1.597-7.506 2.549-5.030 8.748-8.278 14.024-7.348 6.032 1.064 10.359 5.257 11.608 11.249 1.316 6.314-2.469 12.932-8.834 15.444-1.407 0.555-5.9 0.946-7.2 0.627zM21.44 25.055c2.828-1.301 3.184-2.161 1.596-3.865l-0.669-0.718-1.409 0.826c-1.977 1.159-4.425 1.368-6.299 0.54-1.691-0.748-3.237-2.583-3.084-3.66l0.105-0.738 13.92-0.172v-1.742c0-3.634-2.261-7.345-5.375-8.824-1.091-0.518-2.122-0.72-3.745-0.735-3.933-0.035-7.090 1.962-8.773 5.551-1.137 2.424-1.177 6.424-0.087 8.802 1.172 2.558 3.274 4.379 6.14 5.319 1.483 0.486 6.119 0.134 7.68-0.584zM11.555 14.109c-0.674-0.427 0.696-3.035 2.025-3.857 1.506-0.931 4.205-0.894 5.652 0.078 1.262 0.847 2.408 2.766 2.112 3.538-0.178 0.463-0.804 0.532-4.774 0.528-2.514-0.003-4.77-0.132-5.015-0.287z"></path>
<path d="M11.805 28.701c-2.608-1.094-3.943-1.995-5.393-3.643-7.165-8.14-2.621-20.748 8.142-22.591 4.060-0.695 8.652 0.915 11.651 4.087 6.371 6.736 4.514 17.442-3.732 21.521-2.264 1.12-2.664 1.211-5.655 1.292-2.779 0.075-3.464-0.016-5.013-0.666zM20.852 25.422c1.935-0.683 3.468-1.717 3.468-2.34 0-0.3-0.407-1.034-0.905-1.63l-0.905-1.084-1.718 0.856c-2.219 1.106-4.932 1.178-6.711 0.178-1.103-0.62-2.561-2.582-2.561-3.446 0-0.251 2.027-0.356 6.841-0.356 5.723 0 6.907-0.079 7.243-0.485 0.588-0.708 0.151-3.728-0.866-5.996-3.299-7.352-13.82-7.114-17.186 0.389-1.652 3.682-1.034 8.403 1.491 11.387 1.017 1.202 3.601 2.64 5.429 3.021 1.688 0.353 4.625 0.125 6.381-0.494zM11.52 13.487c0-1.742 2.636-3.886 4.779-3.887 2.323-0.001 4.821 1.972 4.821 3.809 0 0.651-0.14 0.671-4.8 0.671-4.459 0-4.8-0.042-4.8-0.593z"></path>
<path d="M13.28 28.996c-3.606-0.877-7.232-3.813-8.782-7.11-1.2-2.553-1.696-5.611-1.282-7.912 1.047-5.823 5.16-10.087 10.881-11.28 7.141-1.489 14.276 3.655 15.647 11.28 0.66 3.671-0.733 8.053-3.535 11.118-3.242 3.547-8.217 5.050-12.929 3.904zM21.648 25.309c0.907-0.397 1.968-1.061 2.358-1.476l0.709-0.755-0.682-1.103c-1.144-1.851-1.366-1.924-3.118-1.015-3.299 1.711-6.978 1.197-8.427-1.179-1.34-2.198-1.45-2.159 6.31-2.256l6.96-0.086 0.098-1.717c0.213-3.726-1.916-7.475-5.196-9.153-3.788-1.937-8.697-1.036-11.549 2.12-1.655 1.832-2.47 3.856-2.646 6.576-0.32 4.94 2.359 9.088 6.813 10.548 1.96 0.643 6.351 0.378 8.369-0.505zM11.759 13.893c-0.348-0.348 0.426-1.957 1.382-2.873 1.266-1.213 4.383-1.484 5.924-0.515 1.030 0.648 2.229 2.713 1.892 3.259-0.207 0.335-8.87 0.457-9.198 0.129z"></path>
<path d="M12.451 28.513c-4.716-1.509-8.033-5.443-8.959-10.627-0.468-2.621-0.1-4.899 1.26-7.799 2.379-5.073 8.36-8.229 13.723-7.241 5.714 1.053 9.836 5.179 11.009 11.019 0.706 3.518-0.654 8.088-3.246 10.899-3.548 3.849-8.914 5.308-13.788 3.749zM21.098 25.777c1.797-0.645 3.542-1.965 3.542-2.679 0-0.817-1.545-2.938-2.14-2.938-0.284 0-1.288 0.377-2.23 0.838-3.193 1.562-7.139 0.53-8.059-2.108l-0.338-0.97h6.824c5.723 0 6.889-0.079 7.229-0.488 0.683-0.822 0.158-4.477-0.972-6.773-1.111-2.257-2.296-3.383-4.747-4.509-1.49-0.685-2.052-0.769-4.324-0.65-4.181 0.219-7.042 2.141-8.703 5.845-2.807 6.259 0.401 13.268 6.814 14.887 1.623 0.41 5.36 0.17 7.103-0.456zM11.84 13.487c0-0.669 1.553-2.499 2.566-3.025 1.3-0.674 3.37-0.541 4.652 0.299 0.787 0.516 1.741 1.974 1.741 2.662 0 0.219-1.565 0.336-4.48 0.336-2.464 0-4.48-0.123-4.48-0.273z"></path>
</svg>
