<!-- Generated by IcoMoon.io -->
<svg version="1.1" xmlns="http://www.w3.org/2000/svg" width="32" height="32" viewBox="0 0 32 32">
<title>redcap</title>
<path d="M15.472 3.728c-0.208 0.224-0.864 0.512-1.632 0.736-3.152 0.896-5.456 2.72-6.8 5.344-0.656 1.296-0.704 1.52-0.768 2.88-0.032 0.816 0.048 2.336 0.176 3.392 0.4 3.264 0.4 3.264-2.272 7.264-1.264 1.872-2.352 3.616-2.432 3.856-0.352 0.992 0.432 1.76 1.472 1.456 0.592-0.176 2.064-1.6 2.064-2 0.016-0.448 0.256-0.592 0.736-0.4 0.256 0.096 1.504 0.496 2.784 0.896 4.832 1.488 7.824 1.040 10.4-1.536 1.168-1.184 3.664-4.8 4.64-6.736 0.464-0.928 0.8-1.392 1.248-1.68 0.688-0.464 2.752-1.232 4.288-1.616l1.056-0.272-0.096-0.608c-0.224-1.408-1.28-4.496-2.096-6.144-0.976-1.968-1.712-2.96-2.864-3.824-1.296-0.96-2.016-1.12-5.328-1.136-1.616-0.016-2.976-0.080-3.040-0.128-0.256-0.256-1.2-0.096-1.536 0.256z"></path>
</svg>
