<!-- Generated by IcoMoon.io -->
<svg version="1.1" xmlns="http://www.w3.org/2000/svg" width="32" height="32" viewBox="0 0 32 32">
<title>researchmatch</title>
<path d="M3.553 26.44c-0.257-0.309-0.34-2.754-0.279-8.24l0.086-7.8 2.323-0.094c2.25-0.091 2.333-0.068 2.642 0.747l0.32 0.841 0.967-0.814c1.064-0.895 3.059-1.417 3.547-0.928 0.171 0.171 0.268 1.362 0.216 2.646l-0.095 2.335-1.394 0.411c-2.824 0.832-3.566 2.488-3.566 7.959 0 3.405 0.021 3.378-2.707 3.378-1.047 0-1.834-0.168-2.060-0.44zM14.113 26.44c-0.257-0.309-0.339-2.754-0.279-8.24l0.086-7.8 0.746-0.106c0.417-0.059 1.296 0.259 1.993 0.72 1.49 0.986 1.425 0.98 2.492 0.222 3.378-2.402 8.2-1.118 9.275 2.469 0.517 1.727 0.509 12.271-0.010 12.791-0.398 0.398-3.342 0.53-4.23 0.19-0.428-0.164-0.511-0.922-0.538-4.88-0.018-2.577-0.132-5.044-0.253-5.481-0.294-1.057-1.593-1.765-2.718-1.483-1.443 0.362-1.797 1.746-1.797 7.033 0 5.229 0.121 5.005-2.707 5.005-1.047 0-1.834-0.168-2.060-0.44zM3.945 8.834c-0.705-0.606-0.891-1.040-0.891-2.078 0-1.783 0.958-2.741 2.741-2.741 2.604 0 3.755 2.804 1.909 4.65-1.17 1.17-2.525 1.231-3.76 0.169zM14.994 9.128c-1.932-1.079-1.719-4.104 0.35-4.961 2.011-0.833 4.168 1.046 3.692 3.216-0.383 1.742-2.449 2.634-4.041 1.745zM25.074 9.283c-0.919-0.371-1.714-1.559-1.714-2.563 0-1.095 0.724-2.064 1.907-2.555 3.058-1.267 5.177 3.442 2.234 4.964-1.019 0.527-1.435 0.553-2.427 0.153z"></path>
<path d="M3.553 26.44c-0.257-0.309-0.34-2.754-0.279-8.24l0.086-7.8 2.323-0.094c2.25-0.091 2.333-0.068 2.642 0.747l0.32 0.841 0.967-0.814c1.064-0.895 3.059-1.417 3.547-0.928 0.171 0.171 0.268 1.362 0.216 2.646l-0.095 2.335-1.394 0.411c-2.824 0.832-3.566 2.488-3.566 7.959 0 3.405 0.021 3.378-2.707 3.378-1.047 0-1.834-0.168-2.060-0.44zM14.307 26.040c-0.125-0.125-0.227-3.591-0.227-7.704 0-6.168 0.080-7.507 0.455-7.651 0.533-0.204 1.643 0.319 2.679 1.264 0.602 0.548 0.833 0.6 1.28 0.283 2.523-1.785 5.34-2.196 7.414-1.083 1.979 1.061 2.378 2.372 2.52 8.278 0.069 2.855 0.032 5.563-0.082 6.017-0.198 0.791-0.291 0.821-2.197 0.73l-1.99-0.095-0.16-5.229c-0.153-5.016-0.191-5.254-0.915-5.84-0.753-0.609-2.089-0.789-3.067-0.413-1.043 0.4-1.296 1.534-1.457 6.522l-0.16 4.96-1.933 0.094c-1.063 0.051-2.035-0.009-2.16-0.133zM3.945 8.834c-0.705-0.606-0.891-1.040-0.891-2.078 0-1.783 0.958-2.741 2.741-2.741 2.604 0 3.755 2.804 1.909 4.65-1.17 1.17-2.525 1.231-3.76 0.169zM14.72 8.32c-0.356-0.356-0.64-1.067-0.64-1.6 0-1.891 2.142-2.881 3.769-1.742 0.915 0.641 0.989 2.671 0.126 3.452-0.805 0.729-2.472 0.672-3.255-0.11zM24.53 8.375c-0.792-0.876-0.69-2.786 0.182-3.397 1.627-1.139 3.769-0.149 3.769 1.742 0 0.533-0.284 1.244-0.64 1.6-0.817 0.817-2.594 0.847-3.31 0.055z"></path>
<path d="M3.873 26.12c-0.256-0.309-0.34-2.671-0.279-7.92l0.086-7.48h2.080c2.031 0 2.082 0.021 2.181 0.88 0.109 0.95 0.83 1.192 1.141 0.384 0.242-0.63 2.97-1.854 3.596-1.613 0.364 0.14 0.45 0.667 0.377 2.313l-0.095 2.132-1.465 0.426c-2.691 0.783-3.46 2.445-3.481 7.525-0.016 3.812-0.004 3.794-2.401 3.794-0.776 0-1.534-0.192-1.74-0.44zM14.307 26.040c-0.125-0.125-0.227-3.591-0.227-7.704 0-6.168 0.080-7.507 0.455-7.651 0.533-0.204 1.643 0.319 2.679 1.264 0.602 0.548 0.833 0.6 1.28 0.283 2.523-1.785 5.34-2.196 7.414-1.083 1.979 1.061 2.378 2.372 2.52 8.278 0.069 2.855 0.032 5.563-0.082 6.017-0.198 0.791-0.291 0.821-2.197 0.73l-1.99-0.095-0.16-5.229c-0.153-5.016-0.191-5.254-0.915-5.84-0.753-0.609-2.089-0.789-3.067-0.413-1.043 0.4-1.296 1.534-1.457 6.522l-0.16 4.96-1.933 0.094c-1.063 0.051-2.035-0.009-2.16-0.133zM4.285 8.531c-1.602-1.378-0.928-3.697 1.227-4.223 0.703-0.172 1.060-0.025 1.84 0.755 1.215 1.215 1.224 2.091 0.033 3.282-1.131 1.131-1.945 1.18-3.1 0.186zM14.72 8.32c-0.356-0.356-0.64-1.067-0.64-1.6 0-1.891 2.142-2.881 3.769-1.742 0.915 0.641 0.989 2.671 0.126 3.452-0.805 0.729-2.472 0.672-3.255-0.11zM24.53 8.375c-0.792-0.876-0.69-2.786 0.182-3.397 1.627-1.139 3.769-0.149 3.769 1.742 0 0.533-0.284 1.244-0.64 1.6-0.817 0.817-2.594 0.847-3.31 0.055z"></path>
<path d="M3.873 26.12c-0.256-0.309-0.34-2.671-0.279-7.92l0.086-7.48h2.080c2.031 0 2.082 0.021 2.181 0.88 0.109 0.95 0.83 1.192 1.141 0.384 0.242-0.63 2.97-1.854 3.596-1.613 0.364 0.14 0.45 0.667 0.377 2.313l-0.095 2.132-1.465 0.426c-2.691 0.783-3.46 2.445-3.481 7.525-0.016 3.812-0.004 3.794-2.401 3.794-0.776 0-1.534-0.192-1.74-0.44zM14.72 18.577c0-8.23-0.007-8.207 2.061-6.391l1.123 0.986 1.457-1.046c2.776-1.993 6.671-1.504 7.92 0.994 0.471 0.944 0.56 2.042 0.56 6.977l0 5.857-3.36-0.193-0.060-4.46c-0.033-2.453-0.145-4.797-0.248-5.208-0.682-2.719-5.135-2.721-5.77-0.003-0.091 0.391-0.201 2.727-0.244 5.191l-0.078 4.48-3.36 0.193zM4.285 8.531c-1.602-1.378-0.928-3.697 1.227-4.223 0.703-0.172 1.060-0.025 1.84 0.755 1.215 1.215 1.224 2.091 0.033 3.282-1.131 1.131-1.945 1.18-3.1 0.186zM14.898 7.929c-0.67-0.957-0.627-1.72 0.142-2.489 1.25-1.25 3.2-0.437 3.2 1.336 0 1.718-2.373 2.536-3.342 1.153zM24.85 8.055c-1.684-1.861 0.897-4.388 2.67-2.615 0.769 0.769 0.812 1.532 0.142 2.489-0.615 0.878-2.073 0.943-2.812 0.126z"></path>
<path d="M3.873 26.12c-0.256-0.309-0.34-2.671-0.279-7.92l0.086-7.48h2.080c2.031 0 2.082 0.021 2.181 0.88 0.109 0.95 0.83 1.192 1.141 0.384 0.242-0.63 2.97-1.854 3.596-1.613 0.364 0.14 0.45 0.667 0.377 2.313l-0.095 2.132-1.465 0.426c-2.691 0.783-3.46 2.445-3.481 7.525-0.016 3.812-0.004 3.794-2.401 3.794-0.776 0-1.534-0.192-1.74-0.44zM4.285 8.531c-1.602-1.378-0.928-3.697 1.227-4.223 0.703-0.172 1.060-0.025 1.84 0.755 1.215 1.215 1.224 2.091 0.033 3.282-1.131 1.131-1.945 1.18-3.1 0.186z"></path>
<path d="M3.99 25.85c-0.090-0.233-0.124-3.661-0.076-7.617l0.086-7.193 3.68-0.192v0.957c0 1.388 0.555 1.522 1.708 0.41 1.078-1.040 2.635-1.778 3.119-1.479 0.161 0.1 0.293 1.021 0.293 2.047v1.866l-1.088 0.204c-0.598 0.112-1.465 0.501-1.926 0.864-1.496 1.177-1.881 2.384-2.081 6.523l-0.185 3.84-1.684 0.097c-1.175 0.068-1.733-0.031-1.846-0.327zM4.275 8.144c-0.635-0.635-0.769-1.008-0.604-1.68 0.116-0.475 0.382-1.034 0.591-1.243s0.768-0.474 1.243-0.591c0.672-0.165 1.045-0.031 1.68 0.604 1.026 1.026 1.036 1.935 0.031 2.94s-1.914 0.996-2.94-0.031z"></path>
<path d="M4.16 18.56v-7.36h3.2v1.13c0 1.606 0.803 1.814 1.848 0.479 0.675-0.862 2.39-1.929 3.102-1.929 0.094 0 0.17 0.792 0.17 1.76 0 1.143-0.133 1.76-0.379 1.76-1.104 0-3.077 1.375-3.787 2.64-0.654 1.164-0.784 1.9-0.898 5.12l-0.134 3.76h-3.121zM4.48 8c-1.131-1.131-0.625-2.656 1.012-3.050 0.626-0.151 1.030-0.028 1.52 0.463 0.841 0.841 0.851 1.765 0.028 2.588-0.352 0.352-0.928 0.64-1.28 0.64s-0.928-0.288-1.28-0.64z"></path>
</svg>
