<!-- Generated by IcoMoon.io -->
<svg version="1.1" xmlns="http://www.w3.org/2000/svg" width="32" height="32" viewBox="0 0 32 32">
<title>starbrite</title>
<path d="M14.018 28.454c-5.341-0.781-10.024-5.527-10.779-10.925-1.242-8.875 6.056-16.173 14.93-14.93 5.481 0.767 10.145 5.432 10.912 10.912 1.25 8.932-6.126 16.249-15.063 14.943zM16.143 18.569c0.185 0.005 0.902 0.436 1.592 0.958s1.3 0.904 1.355 0.849c0.055-0.055-0.072-0.924-0.284-1.931l-0.384-1.83 2.857-2.508-1.494-0.014c-2.131-0.019-2.411-0.203-2.996-1.964-0.559-1.684-0.908-1.788-1.256-0.373-0.453 1.843-1.020 2.323-2.741 2.323-0.876 0-1.593 0.072-1.593 0.161s0.588 0.692 1.308 1.342c1.104 0.997 1.278 1.321 1.12 2.079-0.103 0.494-0.284 1.36-0.401 1.925l-0.213 1.027 1.396-1.027c0.768-0.565 1.548-1.023 1.733-1.018z"></path>
<path d="M12.808 27.967c-2.292-0.616-4.058-1.675-5.889-3.532-7.223-7.327-3.141-19.715 7.125-21.624 8.467-1.575 16.4 6.359 14.825 14.825-1.413 7.6-8.724 12.303-16.061 10.331zM14.537 19.831c0.691-0.523 1.385-0.951 1.542-0.951s0.933 0.446 1.725 0.991c0.792 0.545 1.525 0.906 1.629 0.802s0.022-0.746-0.183-1.428c-0.649-2.165-0.5-2.709 1.056-3.876 0.785-0.588 1.353-1.191 1.261-1.339s-0.942-0.27-1.889-0.27c-1.88 0-1.995-0.091-2.72-2.151-0.264-0.75-0.624-1.38-0.8-1.398s-0.615 0.736-0.975 1.677l-0.655 1.712-1.985 0.095c-1.092 0.052-1.985 0.189-1.985 0.303s0.684 0.809 1.519 1.544l1.519 1.337-0.525 1.961c-0.61 2.276-0.41 2.411 1.465 0.992z"></path>
<path d="M12.241 27.71c-3.215-1.046-6.078-3.615-7.692-6.901-0.786-1.6-0.869-2.108-0.869-5.29 0-3.247 0.073-3.669 0.941-5.44 1.201-2.45 3.648-4.897 6.099-6.099 1.771-0.868 2.193-0.941 5.44-0.941s3.669 0.073 5.44 0.941c2.45 1.201 4.897 3.648 6.099 6.099 0.868 1.771 0.941 2.193 0.941 5.44s-0.073 3.669-0.941 5.44c-1.201 2.449-3.65 4.899-6.088 6.090-1.639 0.8-2.342 0.945-4.96 1.018-1.949 0.054-3.541-0.075-4.41-0.357zM14.24 20.16c0.767-0.528 1.617-0.96 1.888-0.96s1.143 0.458 1.938 1.018c0.794 0.56 1.524 0.938 1.622 0.841s-0.071-1.072-0.375-2.166l-0.553-1.988 3.48-3.118-1.92-0.019c-1.056-0.010-2.099-0.133-2.318-0.272s-0.662-1.029-0.984-1.976c-0.322-0.948-0.728-1.771-0.901-1.829s-0.565 0.688-0.871 1.658c-0.644 2.042-1.159 2.41-3.384 2.41-0.892 0-1.621 0.117-1.621 0.261s0.641 0.741 1.424 1.327c0.783 0.587 1.497 1.258 1.587 1.492s-0.046 1.112-0.301 1.953c-0.495 1.633-0.581 2.328-0.288 2.328 0.1 0 0.81-0.432 1.578-0.96z"></path>
<path d="M12.428 27.565c-2.472-0.817-3.787-1.685-5.666-3.74-2.247-2.459-3.054-4.652-3.054-8.305 0-4.030 0.819-6.025 3.623-8.829 2.439-2.439 4.661-3.467 8.053-3.727 7.404-0.568 13.9 5.929 13.333 13.333-0.26 3.393-1.288 5.614-3.727 8.053-1.577 1.577-2.594 2.294-4.029 2.843-2.64 1.008-6.145 1.162-8.532 0.373zM14.263 20.32c0.866-0.616 1.7-1.12 1.853-1.12s0.988 0.521 1.856 1.158c0.868 0.637 1.67 1.066 1.783 0.954s-0.020-1.145-0.295-2.293l-0.5-2.088 1.568-1.322c0.862-0.727 1.517-1.476 1.455-1.665s-1.038-0.415-2.168-0.503l-2.055-0.16-0.674-1.905c-0.597-1.687-1.406-2.731-1.406-1.814 0 0.184-0.298 1.132-0.663 2.107l-0.663 1.772h-2.038c-1.121 0-2.119 0.131-2.218 0.291s0.569 0.936 1.484 1.724l1.664 1.434-0.376 1.556c-0.207 0.856-0.468 1.88-0.581 2.276-0.282 0.991 0.136 0.906 1.972-0.4z"></path>
<path d="M12.16 27.329c-3.626-1.3-6.729-4.489-7.859-8.075-0.833-2.644-0.531-6.698 0.681-9.157 1.188-2.409 3.318-4.547 5.755-5.777 1.77-0.893 2.148-0.96 5.423-0.96s3.652 0.067 5.423 0.96c2.423 1.223 4.555 3.354 5.777 5.777 0.893 1.77 0.96 2.148 0.96 5.423s-0.067 3.652-0.96 5.423c-1.229 2.435-3.366 4.565-5.777 5.759-1.627 0.805-2.343 0.956-4.943 1.043-2.202 0.073-3.437-0.041-4.48-0.415zM14.080 20.64c0.839-0.616 1.721-1.12 1.96-1.12s1.195 0.524 2.126 1.165c0.93 0.641 1.788 1.068 1.907 0.949s-0.029-1.134-0.329-2.257c-0.299-1.123-0.544-2.169-0.544-2.324s0.72-0.831 1.6-1.502c2.208-1.684 2.114-2.111-0.461-2.111-2.296 0-2.28 0.013-3.219-2.535-0.352-0.955-0.806-1.79-1.009-1.857-0.212-0.069-0.661 0.759-1.057 1.948-0.379 1.138-0.909 2.153-1.178 2.256s-1.246 0.188-2.17 0.188c-0.924 0-1.786 0.105-1.915 0.234s0.574 0.957 1.562 1.84l1.796 1.606-0.492 1.6c-0.508 1.654-0.646 3.040-0.302 3.040 0.108 0 0.884-0.504 1.723-1.12z"></path>
<path d="M13.12 27.382c-4.507-1.254-7.627-4.422-8.845-8.982-1.069-4 0.189-8.481 3.237-11.528s7.528-4.305 11.528-3.237c4.634 1.238 7.767 4.371 9.005 9.005 2.331 8.727-6.213 17.166-14.925 14.742zM14.491 20.554l1.531-1.105 1.967 1.321c1.194 0.802 2.083 1.206 2.261 1.027s0.092-0.986-0.218-2.055c-0.763-2.623-0.692-2.896 1.097-4.261 2.189-1.669 2.020-2.159-0.812-2.361l-2.237-0.16-0.763-2.175c-0.964-2.748-1.495-2.727-2.436 0.095l-0.693 2.080-2.15 0.095c-2.427 0.107-3.077 0.694-1.86 1.68 0.377 0.305 1.136 0.934 1.686 1.397l1.001 0.842-0.543 2.215c-0.798 3.257-0.615 3.372 2.168 1.365z"></path>
<path d="M12.96 27.090c-3.703-1.229-6.069-3.263-7.632-6.562-0.899-1.897-1.008-2.441-1.008-5.008s0.11-3.111 1.008-5.008c1.28-2.701 3.122-4.543 5.823-5.823 1.897-0.899 2.441-1.008 5.008-1.008s3.111 0.11 5.008 1.008c2.701 1.28 4.543 3.122 5.823 5.823 0.899 1.897 1.008 2.441 1.008 5.008s-0.11 3.111-1.008 5.008c-1.98 4.18-5.751 6.694-10.327 6.885-1.436 0.060-2.946-0.072-3.704-0.323zM14.163 21.12c0.983-0.704 1.886-1.28 2.006-1.28s0.743 0.411 1.385 0.914c2.938 2.302 3.627 2.064 2.779-0.96-0.309-1.1-0.625-2.165-0.702-2.367s0.658-0.983 1.634-1.736c0.993-0.766 1.775-1.624 1.775-1.947 0-0.573-0.227-0.628-4.294-1.042-0.453-0.046-0.796-0.609-1.307-2.142-0.954-2.865-1.646-2.856-2.661 0.035l-0.742 2.115-2.267 0.19c-3.221 0.27-3.346 0.574-1.070 2.604l1.899 1.693-0.573 2.119c-0.549 2.028-0.524 3.083 0.074 3.083 0.153 0 1.082-0.576 2.065-1.28z"></path>
</svg>
