<!-- Generated by IcoMoon.io -->
<svg version="1.1" xmlns="http://www.w3.org/2000/svg" width="32" height="32" viewBox="0 0 32 32">
<title>pivotaltracker</title>
<path d="M14.161 31.621c-6.012-0.758-11.149-4.936-13.031-10.596-0.635-1.909-0.793-2.911-0.793-5.025s0.158-3.116 0.793-5.025c1.518-4.566 5.279-8.327 9.845-9.845 1.909-0.635 2.911-0.793 5.025-0.793s3.116 0.158 5.025 0.793c4.566 1.518 8.327 5.279 9.845 9.845 0.635 1.909 0.793 2.911 0.793 5.025 0 3.47-0.913 6.347-2.896 9.125-2.313 3.24-5.813 5.492-9.798 6.305-1.207 0.246-3.615 0.342-4.808 0.192zM19.313 27.946c4.23-1.242 7.349-4.357 8.643-8.633 0.315-1.040 0.34-1.29 0.34-3.313s-0.026-2.272-0.34-3.313c-1.293-4.273-4.371-7.35-8.643-8.643-1.040-0.315-1.29-0.341-3.313-0.341s-2.272 0.026-3.313 0.341c-4.273 1.293-7.35 4.371-8.643 8.643-0.315 1.040-0.341 1.29-0.341 3.313s0.026 2.272 0.341 3.313c1.229 4.062 4.074 7.070 7.936 8.392 1.677 0.574 2.316 0.663 4.395 0.614 1.508-0.036 2.002-0.099 2.938-0.373zM15.904 26.406c-0.597-0.861-2.778-4.79-2.772-4.992 0.004-0.125 0.389-0.873 0.855-1.664l0.848-1.438 0.864 0.042c0.595 0.029 0.928 0.107 1.070 0.25 0.113 0.114 0.922 1.458 1.799 2.986 1.326 2.313 1.567 2.81 1.437 2.967-0.165 0.199-3.583 2.192-3.759 2.192-0.057 0-0.211-0.155-0.342-0.344zM8.756 22.807c-0.994-0.58-1.847-1.127-1.897-1.216-0.098-0.175 2.639-5.043 2.986-5.31 0.138-0.106 0.713-0.156 1.794-0.156 1.664 0 1.986 0.050 1.986 0.307 0 0.086 0.143 0.425 0.319 0.755s0.285 0.687 0.244 0.793c-0.126 0.33-3.090 5.444-3.289 5.676-0.103 0.12-0.221 0.216-0.262 0.212s-0.887-0.481-1.881-1.061zM18.255 19.687l-0.901-1.563 0.328-0.389c0.18-0.214 0.411-0.551 0.514-0.749l0.186-0.36h3.483c3.061 0 3.493 0.024 3.559 0.198 0.099 0.258 0.099 3.972 0 4.23-0.066 0.173-0.464 0.198-3.172 0.198h-3.096zM18.42 15.656c-0.040-0.12-0.212-0.507-0.383-0.859l-0.311-0.64 1.69-2.923c1.16-2.006 1.764-2.934 1.927-2.96 0.255-0.040 3.649 1.865 3.798 2.132 0.075 0.134-1.916 3.78-2.803 5.134l-0.219 0.334h-1.814c-1.616 0-1.821-0.024-1.886-0.219zM6.65 15.35c-0.173-0.173-0.214-4.181-0.046-4.446 0.078-0.123 0.795-0.151 3.154-0.125l3.054 0.034 0.784 1.313c0.431 0.722 0.814 1.428 0.851 1.569 0.044 0.17-0.108 0.518-0.451 1.031l-0.518 0.775h-3.34c-2.431 0-3.38-0.041-3.49-0.15zM15.955 13.635l-0.733-0.073-1.667-2.875c-0.917-1.581-1.67-2.963-1.673-3.071-0.009-0.277 3.743-2.428 3.978-2.28 0.249 0.157 3.009 4.931 3.013 5.211 0.003 0.22-0.997 2.093-1.526 2.859-0.131 0.189-0.332 0.334-0.448 0.323s-0.54-0.054-0.943-0.094z"></path>
<path d="M14.161 31.621c-6.012-0.758-11.149-4.936-13.031-10.596-0.635-1.909-0.793-2.911-0.793-5.025s0.158-3.116 0.793-5.025c1.518-4.566 5.279-8.327 9.845-9.845 1.909-0.635 2.911-0.793 5.025-0.793s3.116 0.158 5.025 0.793c4.566 1.518 8.327 5.279 9.845 9.845 0.635 1.909 0.793 2.911 0.793 5.025 0 3.47-0.913 6.347-2.896 9.125-2.313 3.24-5.813 5.492-9.798 6.305-1.207 0.246-3.615 0.342-4.808 0.192zM19.313 27.946c4.23-1.242 7.349-4.357 8.643-8.633 0.315-1.040 0.34-1.29 0.34-3.313s-0.026-2.272-0.34-3.313c-1.293-4.273-4.371-7.35-8.643-8.643-1.040-0.315-1.29-0.341-3.313-0.341s-2.272 0.026-3.313 0.341c-4.273 1.293-7.35 4.371-8.643 8.643-0.315 1.040-0.341 1.29-0.341 3.313s0.026 2.272 0.341 3.313c1.229 4.062 4.074 7.070 7.936 8.392 1.677 0.574 2.316 0.663 4.395 0.614 1.508-0.036 2.002-0.099 2.938-0.373zM16.097 26.401c-0.259-0.304-2.848-4.835-2.842-4.973 0.003-0.063 0.384-0.762 0.847-1.552l0.842-1.438 0.684 0.039c0.376 0.022 0.769 0.065 0.872 0.097 0.208 0.064 3.264 5.306 3.337 5.724 0.038 0.22-0.15 0.375-1.114 0.92-0.638 0.36-1.449 0.822-1.802 1.026-0.599 0.346-0.654 0.356-0.824 0.157zM8.75 22.622c-0.928-0.543-1.701-1.060-1.717-1.149s0.609-1.258 1.388-2.599l1.418-2.438 1.83-0.035c1.488-0.028 1.83-0.002 1.83 0.138 0 0.095 0.136 0.429 0.303 0.742l0.303 0.57-1.498 2.605c-1.803 3.136-1.824 3.169-2.018 3.16-0.084-0.004-0.913-0.452-1.841-0.995zM18.45 19.704c-0.454-0.781-0.825-1.504-0.825-1.606s0.118-0.292 0.263-0.423c0.145-0.131 0.343-0.393 0.441-0.582l0.178-0.344h6.744v4.375h-5.975zM18.499 15.406c-0.066-0.189-0.205-0.503-0.309-0.698s-0.19-0.433-0.19-0.53c0-0.239 3.15-5.691 3.33-5.763 0.177-0.071 3.67 1.938 3.67 2.111 0 0.133-2.368 4.295-2.777 4.88l-0.24 0.344h-3.364zM6.75 13.063v-2.188h2.918c3.376 0 2.928-0.189 4.012 1.688 0.655 1.132 0.707 1.275 0.552 1.511-0.094 0.144-0.303 0.467-0.464 0.719l-0.294 0.458h-6.725zM16.075 13.51l-0.738-0.073-1.666-2.875c-0.916-1.581-1.653-2.918-1.637-2.97s0.844-0.567 1.841-1.144c1.19-0.689 1.86-1.010 1.953-0.934 0.166 0.136 2.922 4.901 2.922 5.053 0 0.144-1.367 2.569-1.6 2.839-0.104 0.12-0.222 0.209-0.263 0.198s-0.406-0.054-0.812-0.094z"></path>
<path d="M14.308 31.494c-6.375-0.718-11.762-5.378-13.369-11.564-1.666-6.412 0.915-13.198 6.411-16.857 5.296-3.526 12.004-3.526 17.3 0 4.7 3.129 7.408 8.778 6.855 14.301-0.79 7.902-6.99 13.807-14.881 14.172-0.722 0.033-1.765 0.010-2.317-0.053zM19.177 28.14c1.269-0.34 3.298-1.316 4.272-2.054 0.892-0.676 2.338-2.168 2.918-3.011 0.6-0.873 1.473-2.784 1.784-3.906 0.231-0.836 0.272-1.307 0.272-3.169 0-2.574-0.172-3.385-1.154-5.427-0.721-1.501-1.435-2.474-2.68-3.657-1.165-1.107-1.816-1.553-3.272-2.243-1.957-0.927-2.777-1.096-5.317-1.096s-3.36 0.169-5.317 1.096c-1.456 0.69-2.107 1.136-3.272 2.243-1.245 1.183-1.959 2.157-2.68 3.657-0.981 2.042-1.154 2.852-1.154 5.427 0 2.54 0.169 3.36 1.096 5.317 0.69 1.456 1.136 2.107 2.243 3.272 1.824 1.92 3.922 3.113 6.459 3.674 1.465 0.324 4.366 0.262 5.802-0.122zM16.097 26.401c-0.259-0.304-2.848-4.835-2.842-4.973 0.003-0.063 0.384-0.762 0.847-1.552l0.842-1.438 0.684 0.039c0.376 0.022 0.769 0.065 0.872 0.097 0.208 0.064 3.264 5.306 3.337 5.724 0.038 0.22-0.15 0.375-1.114 0.92-0.638 0.36-1.449 0.822-1.802 1.026-0.599 0.346-0.654 0.356-0.824 0.157zM8.75 22.622c-0.928-0.543-1.701-1.060-1.717-1.149s0.609-1.258 1.388-2.599l1.418-2.438 1.83-0.035c1.488-0.028 1.83-0.002 1.83 0.138 0 0.095 0.136 0.429 0.303 0.742l0.303 0.57-1.498 2.605c-1.803 3.136-1.824 3.169-2.018 3.16-0.084-0.004-0.913-0.452-1.841-0.995zM18.45 19.704c-0.454-0.781-0.825-1.504-0.825-1.606s0.118-0.292 0.263-0.423c0.145-0.131 0.343-0.393 0.441-0.582l0.178-0.344h6.744v4.375h-5.975zM18.499 15.406c-0.066-0.189-0.205-0.503-0.309-0.698s-0.19-0.433-0.19-0.53c0-0.239 3.15-5.691 3.33-5.763 0.177-0.071 3.67 1.938 3.67 2.111 0 0.133-2.368 4.295-2.777 4.88l-0.24 0.344h-3.364zM6.75 13.063v-2.188h2.918c3.376 0 2.928-0.189 4.012 1.688 0.655 1.132 0.707 1.275 0.552 1.511-0.094 0.144-0.303 0.467-0.464 0.719l-0.294 0.458h-6.725zM16.075 13.51l-0.738-0.073-1.666-2.875c-0.916-1.581-1.653-2.918-1.637-2.97s0.844-0.567 1.841-1.144c1.19-0.689 1.86-1.010 1.953-0.934 0.166 0.136 2.922 4.901 2.922 5.053 0 0.144-1.367 2.569-1.6 2.839-0.104 0.12-0.222 0.209-0.263 0.198s-0.406-0.054-0.812-0.094z"></path>
<path d="M14.375 31.43c-0.172-0.029-0.706-0.117-1.188-0.195-1.932-0.312-4.373-1.343-6.152-2.599-3.142-2.218-5.341-5.575-6.244-9.532-0.293-1.282-0.293-4.927 0-6.209 1.416-6.206 5.897-10.687 12.103-12.103 1.282-0.293 4.927-0.293 6.209 0 6.206 1.416 10.687 5.897 12.103 12.103 0.293 1.282 0.293 4.927 0 6.209-1.416 6.204-5.991 10.774-12.103 12.092-0.875 0.189-4.070 0.346-4.73 0.233zM18.058 28.435c1.934-0.337 3.773-1.095 5.243-2.161 6.992-5.071 7.089-15.212 0.196-20.385-7.503-5.63-18.306-1.265-19.931 8.053-1.466 8.41 6.083 15.96 14.493 14.493zM16.097 26.401c-0.259-0.304-2.848-4.835-2.842-4.973 0.003-0.063 0.384-0.762 0.847-1.552l0.842-1.438 0.684 0.039c0.376 0.022 0.769 0.065 0.872 0.097 0.208 0.064 3.264 5.306 3.337 5.724 0.038 0.22-0.15 0.375-1.114 0.92-0.638 0.36-1.449 0.822-1.802 1.026-0.599 0.346-0.654 0.356-0.824 0.157zM8.75 22.622c-0.928-0.543-1.701-1.060-1.717-1.149s0.609-1.258 1.388-2.599l1.418-2.438 1.83-0.035c1.488-0.028 1.83-0.002 1.83 0.138 0 0.095 0.136 0.429 0.303 0.742l0.303 0.57-1.498 2.605c-1.803 3.136-1.824 3.169-2.018 3.16-0.084-0.004-0.913-0.452-1.841-0.995zM18.45 19.704c-0.454-0.781-0.825-1.504-0.825-1.606s0.118-0.292 0.263-0.423c0.145-0.131 0.343-0.393 0.441-0.582l0.178-0.344h6.744v4.375h-5.975zM18.499 15.406c-0.066-0.189-0.205-0.503-0.309-0.698s-0.19-0.433-0.19-0.53c0-0.239 3.15-5.691 3.33-5.763 0.177-0.071 3.67 1.938 3.67 2.111 0 0.133-2.368 4.295-2.777 4.88l-0.24 0.344h-3.364zM6.75 13.063v-2.188h2.918c3.376 0 2.928-0.189 4.012 1.688 0.655 1.132 0.707 1.275 0.552 1.511-0.094 0.144-0.303 0.467-0.464 0.719l-0.294 0.458h-6.725zM16.075 13.51l-0.738-0.073-1.666-2.875c-0.916-1.581-1.653-2.918-1.637-2.97s0.844-0.567 1.841-1.144c1.19-0.689 1.86-1.010 1.953-0.934 0.166 0.136 2.922 4.901 2.922 5.053 0 0.144-1.367 2.569-1.6 2.839-0.104 0.12-0.222 0.209-0.263 0.198s-0.406-0.054-0.812-0.094z"></path>
<path d="M14.375 31.43c-0.172-0.029-0.706-0.117-1.188-0.195-1.932-0.312-4.373-1.343-6.152-2.599-3.142-2.218-5.341-5.575-6.244-9.532-0.293-1.282-0.293-4.927 0-6.209 1.416-6.206 5.897-10.687 12.103-12.103 1.282-0.293 4.927-0.293 6.209 0 6.206 1.416 10.687 5.897 12.103 12.103 0.293 1.282 0.293 4.927 0 6.209-1.416 6.204-5.991 10.774-12.103 12.092-0.875 0.189-4.070 0.346-4.73 0.233zM18.058 28.435c1.934-0.337 3.773-1.095 5.243-2.161 6.992-5.071 7.089-15.212 0.196-20.385-7.503-5.63-18.306-1.265-19.931 8.053-1.466 8.41 6.083 15.96 14.493 14.493zM14.766 23.922l-1.416-2.453 0.326-0.578c0.179-0.318 0.537-0.959 0.794-1.425l0.467-0.847 1.622 0.069 1.592 2.75c0.876 1.512 1.594 2.814 1.595 2.893 0.003 0.141-3.201 2.045-3.441 2.045-0.068 0-0.761-1.104-1.54-2.453zM8.902 22.572c-0.845-0.498-1.594-0.964-1.666-1.036-0.090-0.090 0.301-0.875 1.271-2.552 0.771-1.332 1.464-2.463 1.541-2.514s0.824-0.093 1.661-0.094l1.521-0.002 0.737 1.474-1.607 2.794c-0.884 1.537-1.678 2.803-1.765 2.814s-0.849-0.388-1.693-0.886zM19.087 20.534c-1.064-1.701-1.369-2.328-1.23-2.523 0.078-0.109 0.268-0.409 0.424-0.667l0.283-0.469 6.625 0.064v4l-5.806 0.067zM18.434 14.941c-0.18-0.38-0.309-0.763-0.287-0.852 0.065-0.257 3.157-5.587 3.242-5.588 0.114-0.002 3.146 1.755 3.339 1.935 0.136 0.127-0.092 0.601-1.273 2.64l-1.439 2.486-3.256 0.070zM6.805 15.088c-0.034-0.089-0.046-1.031-0.027-2.094l0.035-1.932h5.842l1.612 2.783-0.414 0.609c-0.228 0.335-0.47 0.65-0.539 0.701s-1.547 0.093-3.285 0.094c-2.469 0.002-3.174-0.033-3.222-0.16zM16.154 13.408c-0.601-0.042-0.685-0.086-0.96-0.508-0.438-0.673-2.961-5.067-2.985-5.2-0.022-0.12 3.258-2.074 3.482-2.074 0.073 0 0.772 1.11 1.554 2.466l1.422 2.466-0.348 0.628c-0.831 1.499-1.335 2.314-1.417 2.292-0.049-0.013-0.385-0.044-0.747-0.069z"></path>
<path d="M13.43 31.18c-6.448-1.084-11.567-6.245-12.618-12.721-1.356-8.363 4.362-16.29 12.729-17.647 8.363-1.356 16.29 4.362 17.647 12.729 1.356 8.363-4.362 16.29-12.729 17.647-1.391 0.226-3.662 0.222-5.029-0.008zM17.875 28.567c2.687-0.41 4.975-1.544 6.92-3.428 2.218-2.149 3.488-4.729 3.846-7.812 0.346-2.972-0.522-6.248-2.316-8.751-0.639-0.891-2.251-2.478-3.112-3.064-1.658-1.127-3.798-1.91-5.884-2.153-2.863-0.333-6.076 0.477-8.54 2.153-0.861 0.586-2.473 2.173-3.112 3.064-1.795 2.503-2.662 5.779-2.316 8.751 0.359 3.086 1.635 5.676 3.846 7.806 1.146 1.103 1.821 1.584 3.145 2.237 2.456 1.212 4.888 1.599 7.525 1.196zM14.766 23.922l-1.416-2.453 0.326-0.578c0.179-0.318 0.537-0.959 0.794-1.425l0.467-0.847 1.622 0.069 1.592 2.75c0.876 1.512 1.594 2.814 1.595 2.893 0.003 0.141-3.201 2.045-3.441 2.045-0.068 0-0.761-1.104-1.54-2.453zM8.902 22.572c-0.845-0.498-1.594-0.964-1.666-1.036-0.090-0.090 0.301-0.875 1.271-2.552 0.771-1.332 1.464-2.463 1.541-2.514s0.824-0.093 1.661-0.094l1.521-0.002 0.737 1.474-1.607 2.794c-0.884 1.537-1.678 2.803-1.765 2.814s-0.849-0.388-1.693-0.886zM19.087 20.534c-1.064-1.701-1.369-2.328-1.23-2.523 0.078-0.109 0.268-0.409 0.424-0.667l0.283-0.469 6.625 0.064v4l-5.806 0.067zM18.434 14.941c-0.18-0.38-0.309-0.763-0.287-0.852 0.065-0.257 3.157-5.587 3.242-5.588 0.114-0.002 3.146 1.755 3.339 1.935 0.136 0.127-0.092 0.601-1.273 2.64l-1.439 2.486-3.256 0.070zM6.805 15.088c-0.034-0.089-0.046-1.031-0.027-2.094l0.035-1.932h5.842l1.612 2.783-0.414 0.609c-0.228 0.335-0.47 0.65-0.539 0.701s-1.547 0.093-3.285 0.094c-2.469 0.002-3.174-0.033-3.222-0.16zM16.154 13.408c-0.601-0.042-0.685-0.086-0.96-0.508-0.438-0.673-2.961-5.067-2.985-5.2-0.022-0.12 3.258-2.074 3.482-2.074 0.073 0 0.772 1.11 1.554 2.466l1.422 2.466-0.348 0.628c-0.831 1.499-1.335 2.314-1.417 2.292-0.049-0.013-0.385-0.044-0.747-0.069z"></path>
<path d="M13.43 31.18c-6.448-1.084-11.567-6.245-12.618-12.721-1.356-8.363 4.362-16.29 12.729-17.647 8.363-1.356 16.29 4.362 17.647 12.729 1.356 8.363-4.362 16.29-12.729 17.647-1.391 0.226-3.662 0.222-5.029-0.008zM17.875 28.567c2.687-0.41 4.975-1.544 6.92-3.428 2.218-2.149 3.488-4.729 3.846-7.812 0.346-2.972-0.522-6.248-2.316-8.751-0.639-0.891-2.251-2.478-3.112-3.064-1.658-1.127-3.798-1.91-5.884-2.153-2.863-0.333-6.076 0.477-8.54 2.153-0.861 0.586-2.473 2.173-3.112 3.064-1.795 2.503-2.662 5.779-2.316 8.751 0.359 3.086 1.635 5.676 3.846 7.806 1.146 1.103 1.821 1.584 3.145 2.237 2.456 1.212 4.888 1.599 7.525 1.196z"></path>
</svg>
