<svg width="100px" height="100px" xmlns="http://www.w3.org/2000/svg" xmlns:xlink="http://www.w3.org/1999/xlink">
<g style="">  <path d="M79.785082,38.746360 C79.785082,38.746360,85.701072,43.366748,87.643077,48.429733 C87.643077,48.429733,89.306680,52.633738,84.492361,52.923059 C84.492361,52.923059,87.130070,53.269175,87.993315,51.189200 C87.993315,51.189200,87.217182,54.749394,83.130547,54.995025 L84.799043,55.037743 L84.872910,55.700486 L96.513243,56.121360 L84.915988,56.087622 L72.390929,56.773787 L72.002027,55.883132 C72.002027,55.883132,70.296418,55.642719,68.664796,53.988835 L4.364797,57.862986 L63.717300,36.389321 C63.717300,36.389321,73.506203,33.816263,79.785082,38.746360 Z " style="fill: rgba(56, 147, 205, 1.000000); stroke-width: 0.000000px; stroke: rgba(0, 0, 0, 1.000000); " fill="#44a5d7" stroke="#000000" stroke-width="0.000000" />
  <path d="M4.364797,57.862986 L68.374221,54.615656 C68.374221,54.615656,69.665629,55.928156,71.179591,56.199030 L71.398804,57.153763 L92.430187,58.703156 L4.364797,57.862986 Z " style="fill: rgba(252, 106, 8, 1.000000); stroke-width: 0.000000px; stroke: rgba(0, 0, 0, 1.000000); " fill="#ff8000" stroke="#000000" stroke-width="0.000000" />
  <path d="M67.360021,37.560802 C67.360021,37.560802,71.167659,39.965171,73.312885,42.640049 C73.312885,42.640049,79.566823,43.824394,83.366465,42.791384 C83.366345,42.791384,76.784250,33.637501,67.360021,37.560802 Z " style="fill: rgba(229, 229, 229, 1.000000); stroke-width: 0.000000px; stroke: rgba(0, 0, 0, 1.000000); " fill="#eaeaea" stroke="#000000" stroke-width="0.000000" />
  <path d="M87.543910,50.293932 C87.543910,50.293932,87.563838,50.836287,87.259543,51.196966 C87.259543,51.196966,81.167538,52.170631,77.228755,51.093447 C77.228755,51.093447,71.091643,49.405704,66.203100,49.385316 C66.203100,49.385316,61.817777,49.487258,58.658112,50.046966 C49.519687,51.088593,4.364675,57.862864,4.364675,57.862864 L61.786870,48.308252 C61.786870,48.308252,66.563003,47.364199,73.144745,48.968082 C73.144745,48.968082,78.593552,50.897209,81.623147,50.829369 C81.623267,50.829370,86.881861,50.554126,87.543910,50.293932 Z " style="fill: rgba(229, 229, 229, 1.000000); stroke-width: 0.000000px; stroke: rgba(0, 0, 0, 1.000000); " fill="#eaeaea" stroke="#000000" stroke-width="0.000000" />
  <path d="M68.896658,41.855462 C68.896658,41.855462,64.475059,37.111773,57.986872,39.147210 L4.364797,57.862986 L58.042480,39.620996 C58.042480,39.620996,63.168618,37.469054,68.896658,41.855462 Z " style="fill: rgba(229, 229, 229, 1.000000); stroke-width: 0.000000px; stroke: rgba(0, 0, 0, 1.000000); " fill="#eaeaea" stroke="#000000" stroke-width="0.000000" />
  <path d="M57.418258,43.000486 L59.663365,42.351457 C59.663365,42.351457,63.241169,40.908010,67.077327,46.019054 L57.697494,47.805583 L57.418258,43.000486 Z " style="fill: rgba(229, 229, 229, 1.000000); stroke-width: 0.000000px; stroke: rgba(0, 0, 0, 1.000000); " fill="#eaeaea" stroke="#000000" stroke-width="0.000000" />
  <ellipse cx="66.665634" cy="56.375121" rx="0.232578" ry="0.335316" style="fill: rgba(235, 232, 215, 1.000000); stroke-width: 0.000000px; stroke: rgba(0, 0, 0, 1.000000); " fill="#efecdf" stroke="#000000" stroke-width="0.000000"  />
  <path d="M66.967422,57.699273 C67.479833,57.668447,67.860382,57.044540,67.817542,56.305826 C67.774582,55.567112,67.324344,54.993447,66.811814,55.024151 C66.802387,55.024637,66.793437,55.026821,66.784010,55.027671 C66.862530,54.991384,66.945704,54.968083,67.033055,54.962865 C67.563723,54.930826,68.030072,55.525365,68.074702,56.290292 C68.119212,57.055583,67.724821,57.701578,67.194153,57.733496 C67.106802,57.738714,67.021599,57.725607,66.939260,57.698908 C66.948566,57.698908,66.957757,57.699878,66.967422,57.699273 Z " style="fill: rgba(235, 232, 215, 1.000000); stroke-width: 0.000000px; stroke: rgba(0, 0, 0, 1.000000); " fill="#efecdf" stroke="#000000" stroke-width="0.000000" />
  <path d="M81.636159,54.999150 C73.315395,54.585194,73.550478,51.600243,64.856684,51.796359 C72.419333,51.948302,73.559904,55.141870,81.636159,54.999150 Z " style="fill: rgba(229, 229, 229, 1.000000); stroke-width: 0.000000px; stroke: rgba(0, 0, 0, 1.000000); " fill="#eaeaea" stroke="#000000" stroke-width="0.000000" />
</g></svg>