<?xml version="1.0" encoding="UTF-8" standalone="no"?>
<!DOCTYPE svg PUBLIC "-//W3C//DTD SVG 1.1//EN" "http://www.w3.org/Graphics/SVG/1.1/DTD/svg11.dtd">
<svg width="100%" height="100%" viewBox="0 0 100 100" version="1.1" xmlns="http://www.w3.org/2000/svg" xmlns:xlink="http://www.w3.org/1999/xlink" xml:space="preserve" style="fill-rule:evenodd;clip-rule:evenodd;stroke-linejoin:round;stroke-miterlimit:1.41421;">
    <g transform="matrix(1,0,0,1,0.103999,2.0188)">
        <path d="M4.948,47.438L4.948,45.086L9.758,45.086L9.758,52.943L11.276,52.943L11.276,55.294L4.948,55.294L4.948,52.944L6.498,52.944L6.498,47.438L4.948,47.438L4.948,47.438ZM6.382,42.159C6.382,41.668 6.557,41.248 6.904,40.897C7.253,40.546 7.672,40.371 8.165,40.371C8.664,40.371 9.086,40.546 9.43,40.897C9.775,41.247 9.947,41.668 9.947,42.159C9.947,42.65 9.773,43.069 9.426,43.416C9.077,43.763 8.658,43.936 8.165,43.936C7.68,43.936 7.262,43.761 6.91,43.41C6.558,43.06 6.382,42.643 6.382,42.159Z" style="fill:rgb(68,182,121);fill-rule:nonzero;"/>
    </g>
    <g transform="matrix(1,0,0,1,0.103999,2.0188)">
        <path d="M18.586,52.944L18.586,55.295L11.403,55.295L11.403,52.944L13.291,52.944L13.291,47.438L11.519,47.438L11.519,45.086L16.276,45.086L16.276,47.681C16.459,46.935 16.875,46.29 17.526,45.746C18.176,45.201 18.944,44.928 19.83,44.928C19.978,44.928 20.154,44.931 20.358,44.938L20.358,48.018C19.535,48.018 18.863,48.11 18.343,48.293C17.823,48.476 17.394,48.876 17.057,49.495C16.72,50.114 16.55,50.846 16.55,51.689L16.55,52.944L18.586,52.944Z" style="fill:rgb(68,182,121);fill-rule:nonzero;"/>
    </g>
    <g transform="matrix(1,0,0,1,0.103999,2.0188)">
        <path d="M24.978,40.625L24.978,46.242C25.794,45.303 26.76,44.833 27.878,44.833C29.186,44.833 30.249,45.329 31.068,46.32C31.887,47.311 32.297,48.581 32.297,50.127C32.297,51.779 31.887,53.078 31.068,54.024C30.249,54.97 29.214,55.442 27.962,55.442C26.838,55.442 25.842,55.001 24.978,54.118L24.978,55.295L19.946,55.295L19.946,52.944L21.718,52.944L21.718,42.977L19.946,42.977L19.946,40.625L24.978,40.625ZM28.954,50.106C28.954,49.234 28.774,48.577 28.416,48.134C28.058,47.692 27.582,47.47 26.992,47.47C26.43,47.47 25.948,47.687 25.547,48.123C25.146,48.559 24.946,49.27 24.946,50.254C24.946,51.083 25.134,51.734 25.511,52.204C25.887,52.676 26.37,52.911 26.961,52.911C27.53,52.911 28.005,52.683 28.385,52.226C28.765,51.77 28.954,51.062 28.954,50.106Z" style="fill:rgb(68,182,121);fill-rule:nonzero;"/>
    </g>
    <g transform="matrix(1,0,0,1,0.103999,2.0188)">
        <path d="M44.446,45.086L44.446,48.946L42.654,48.946C42.562,48.207 42.262,47.642 41.752,47.247C41.242,46.854 40.65,46.657 39.974,46.657C39.074,46.657 38.343,46.975 37.781,47.611C37.218,48.248 36.937,49.082 36.937,50.117C36.937,51.08 37.204,51.929 37.738,52.664C38.273,53.398 39.046,53.766 40.058,53.766C41.465,53.766 42.484,53.098 43.117,51.762L44.773,52.542C43.858,54.575 42.259,55.591 39.974,55.591C38.357,55.591 37.084,55.04 36.156,53.935C35.228,52.832 34.764,51.559 34.764,50.118C34.764,48.578 35.27,47.307 36.282,46.305C37.295,45.303 38.462,44.802 39.784,44.802C40.916,44.802 41.872,45.136 42.653,45.804L42.653,45.087L44.446,45.087L44.446,45.086Z" style="fill-rule:nonzero;"/>
    </g>
    <g transform="matrix(1,0,0,1,0.103999,2.0188)">
        <path d="M46.683,53.513L46.683,42.407L44.838,42.407L44.838,40.625L48.687,40.625L48.687,46.257C49.89,45.286 51.032,44.802 52.115,44.802C52.79,44.802 53.346,44.942 53.782,45.223C54.218,45.504 54.514,45.875 54.673,46.336C54.83,46.797 54.91,47.47 54.91,48.355L54.91,53.512L56.65,53.512L56.65,55.295L52.906,55.295L52.906,49.051C52.906,48.278 52.881,47.761 52.832,47.501C52.783,47.241 52.648,47.026 52.426,46.858C52.205,46.689 51.942,46.605 51.64,46.605C50.866,46.605 49.882,47.044 48.687,47.923L48.687,53.513L50.459,53.513L50.459,55.296L44.838,55.296L44.838,53.513L46.683,53.513Z" style="fill-rule:nonzero;"/>
    </g>
    <g transform="matrix(1,0,0,1,0.103999,2.0188)">
        <path d="M56.735,50.19C56.735,48.615 57.255,47.324 58.296,46.314C59.337,45.305 60.606,44.801 62.103,44.801C63.573,44.801 64.835,45.298 65.89,46.294C66.944,47.289 67.472,48.587 67.472,50.19C67.472,51.794 66.946,53.094 65.895,54.093C64.844,55.091 63.58,55.59 62.103,55.59C60.585,55.59 59.31,55.084 58.28,54.072C57.25,53.059 56.735,51.766 56.735,50.19ZM58.855,50.185C58.855,51.193 59.17,52.018 59.799,52.662C60.428,53.307 61.197,53.629 62.103,53.629C63.024,53.629 63.796,53.303 64.418,52.652C65.04,52.002 65.352,51.178 65.352,50.185C65.352,49.185 65.035,48.361 64.402,47.713C63.77,47.065 63.003,46.742 62.103,46.742C61.161,46.742 60.384,47.073 59.772,47.734C59.161,48.396 58.855,49.213 58.855,50.185Z" style="fill-rule:nonzero;"/>
    </g>
    <g transform="matrix(1,0,0,1,0.103999,2.0188)">
        <path d="M69.719,53.513L69.719,46.869L68.137,46.869L68.137,45.086L71.722,45.086L71.722,53.513L73.305,53.513L73.305,55.296L68.137,55.296L68.137,53.513L69.719,53.513ZM69.434,41.616C69.434,41.293 69.549,41.011 69.778,40.772C70.006,40.533 70.296,40.414 70.647,40.414C70.978,40.414 71.262,40.53 71.502,40.762C71.741,40.994 71.86,41.278 71.86,41.616C71.86,41.954 71.741,42.24 71.502,42.476C71.262,42.712 70.978,42.829 70.647,42.829C70.31,42.829 70.023,42.71 69.787,42.47C69.551,42.231 69.434,41.946 69.434,41.616Z" style="fill-rule:nonzero;"/>
    </g>
    <g transform="matrix(1,0,0,1,0.103999,2.0188)">
        <path d="M83.315,45.086L83.315,48.946L81.522,48.946C81.431,48.207 81.13,47.642 80.621,47.247C80.11,46.854 79.518,46.657 78.843,46.657C77.943,46.657 77.212,46.975 76.65,47.611C76.087,48.248 75.806,49.082 75.806,50.117C75.806,51.08 76.073,51.929 76.607,52.664C77.142,53.398 77.915,53.766 78.927,53.766C80.334,53.766 81.353,53.098 81.986,51.762L83.642,52.542C82.727,54.575 81.128,55.591 78.842,55.591C77.226,55.591 75.953,55.04 75.025,53.935C74.097,52.832 73.633,51.559 73.633,50.118C73.633,48.578 74.139,47.307 75.151,46.305C76.164,45.303 77.331,44.802 78.653,44.802C79.785,44.802 80.741,45.136 81.522,45.804L81.522,45.087L83.315,45.087L83.315,45.086Z" style="fill-rule:nonzero;"/>
    </g>
    <g transform="matrix(1,0,0,1,0.103999,2.0188)">
        <path d="M94.844,50.697L86.259,50.697C86.386,51.639 86.758,52.402 87.377,52.986C87.995,53.569 88.786,53.861 89.75,53.861C91.149,53.861 92.257,53.298 93.072,52.174L94.844,52.954C94.267,53.847 93.518,54.51 92.598,54.942C91.676,55.374 90.713,55.591 89.707,55.591C88.146,55.591 86.813,55.105 85.705,54.13C84.598,53.157 84.044,51.844 84.044,50.191C84.044,48.623 84.583,47.333 85.662,46.321C86.742,45.308 87.981,44.802 89.38,44.802C90.751,44.802 91.994,45.297 93.108,46.284C94.223,47.271 94.802,48.742 94.844,50.697ZM92.777,49.242C92.636,48.525 92.263,47.876 91.659,47.295C91.054,46.715 90.312,46.426 89.434,46.426C88.633,46.426 87.947,46.688 87.378,47.211C86.808,47.735 86.461,48.412 86.334,49.242L92.777,49.242Z" style="fill-rule:nonzero;"/>
    </g>
</svg>
