<svg width="100px" height="100px" xmlns="http://www.w3.org/2000/svg" xmlns:xlink="http://www.w3.org/1999/xlink">
<g style="">  <path d="M94.144375,49.986521 C94.144375,74.346037,74.397048,94.094609,50.036081,94.094609 C25.674907,94.094609,5.927788,74.346037,5.927788,49.986521 C5.927788,25.625554,25.675114,5.878433,50.036081,5.878433 C74.397051,5.878228,94.144375,25.625554,94.144375,49.986521 Z " style="fill: rgba(17, 95, 152, 1.000000); stroke-width: 0.000000px; stroke: rgba(0, 0, 0, 1.000000); " fill="#0d74a9" stroke="#000000" stroke-width="0.000000" />
  <path d="M11.950945,48.260554 C11.950945,48.087812,11.944101,47.877950,11.931037,47.631591 C11.917558,47.385231,11.907604,47.135761,11.900968,46.882766 C11.894125,46.629978,11.883963,46.393572,11.870899,46.173757 C11.857419,45.954148,11.850991,45.784517,11.850991,45.664448 L13.049194,45.664448 C13.062258,46.010761,13.072212,46.343388,13.079263,46.662950 C13.085899,46.982512,13.102281,47.189056,13.129240,47.281959 L13.189171,47.281959 C13.428687,46.776176,13.828295,46.340277,14.387373,45.973849 C14.946452,45.607835,15.598641,45.424724,16.344562,45.424724 C16.956728,45.424724,17.515806,45.581291,18.022004,45.894010 C18.527788,46.206936,18.893802,46.716245,19.120461,47.421729 C19.413064,46.729724,19.849378,46.223526,20.428571,45.903964 C21.007557,45.584402,21.616613,45.424724,22.255944,45.424724 C22.974908,45.424724,23.560530,45.537950,24.013226,45.764194 C24.465714,45.990853,24.821981,46.286982,25.081613,46.652996 C25.341244,47.019425,25.521037,47.441844,25.620783,47.921084 C25.720737,48.400531,25.770714,48.893250,25.770714,49.398826 L25.770714,54.890485 L24.572511,54.890485 L24.572511,49.458757 C24.572511,49.086107,24.539124,48.723204,24.472765,48.370254 C24.405991,48.017720,24.289654,47.701268,24.123341,47.421729 C23.956613,47.142190,23.723940,46.919263,23.424285,46.752743 C23.124838,46.586429,22.735391,46.503065,22.256152,46.503065 C21.696866,46.503065,21.237534,46.606337,20.878156,46.812674 C20.518779,47.019217,20.235714,47.281959,20.029378,47.601522 C19.822834,47.921084,19.676428,48.267397,19.589954,48.639839 C19.503272,49.012697,19.460138,49.365646,19.460138,49.698273 L19.460138,54.890485 L18.261520,54.890485 L18.261520,49.338895 C18.261520,48.487005,18.104953,47.801222,17.792234,47.281959 C17.479308,46.762697,16.996543,46.503273,16.344561,46.503273 C15.905137,46.503273,15.488939,46.580001,15.096382,46.732835 C14.703617,46.886084,14.364147,47.119171,14.077972,47.431683 C13.791589,47.744609,13.565345,48.137581,13.399032,48.609978 C13.232511,49.082582,13.149354,49.638342,13.149354,50.277466 L13.149354,54.890485 L11.951151,54.890485 L11.951151,48.260554 L11.950945,48.260554 Z " style="fill: rgba(255, 255, 255, 1.000000); stroke-width: 0.000000px; stroke: rgba(0, 0, 0, 1.000000); " fill="#ffffff" stroke="#000000" stroke-width="0.000000" />
  <path d="M27.667142,42.009909 C27.667142,41.757121,27.753617,41.543941,27.926774,41.370785 C28.099516,41.198043,28.312695,41.111361,28.565898,41.111361 C28.818686,41.111361,29.031866,41.198043,29.205023,41.370785 C29.377764,41.543941,29.464654,41.757121,29.464654,42.009909 C29.464654,42.262905,29.377972,42.476084,29.205023,42.649034 C29.031866,42.822190,28.818686,42.908665,28.565898,42.908665 C28.312903,42.908665,28.099723,42.822190,27.926774,42.649034 C27.753617,42.476084,27.667142,42.262905,27.667142,42.009909 Z M27.966589,45.664448 L29.164792,45.664448 L29.164792,54.890693 L27.966589,54.890693 L27.966589,45.664448 Z " style="fill: rgba(255, 255, 255, 1.000000); stroke-width: 0.000000px; stroke: rgba(0, 0, 0, 1.000000); " fill="#ffffff" stroke="#000000" stroke-width="0.000000" />
  <path d="M39.429354,53.272971 L39.389331,53.272971 C39.202695,53.592533,38.970023,53.868962,38.690276,54.101842 C38.410737,54.334929,38.107765,54.527994,37.781774,54.680828 C37.455368,54.834077,37.112788,54.947095,36.753410,55.020298 C36.394032,55.093294,36.041083,55.130206,35.694977,55.130206 C34.989078,55.130206,34.337096,55.010344,33.737788,54.770828 C33.138686,54.531105,32.626060,54.195160,32.200115,53.762372 C31.773963,53.329999,31.441336,52.817165,31.201613,52.224699 C30.961889,51.632441,30.842235,50.983363,30.842235,50.277672 C30.842235,49.572188,30.962096,48.923109,31.201613,48.330436 C31.441336,47.738386,31.773963,47.225552,32.200115,46.792764 C32.626060,46.360390,33.138686,46.023824,33.737788,45.784308 C34.336889,45.544584,34.989078,45.424930,35.694977,45.424930 C36.041082,45.424930,36.394032,45.461635,36.753410,45.534630 C37.112788,45.608040,37.455368,45.721266,37.781774,45.874100 C38.107765,46.027349,38.410737,46.220413,38.690276,46.453294 C38.970023,46.686381,39.202695,46.962602,39.389331,47.281957 L39.429354,47.281957 L39.429354,39.793294 L40.627557,39.793294 L40.627557,54.890690 L39.429354,54.890690 L39.429354,53.272971 Z M39.549217,50.277466 C39.549217,49.758203,39.449470,49.269010,39.249770,48.809678 C39.050069,48.350346,38.776959,47.950945,38.430853,47.611475 C38.084539,47.272005,37.678710,47.002420,37.212742,46.802719 C36.746567,46.603019,36.240784,46.503272,35.694977,46.503272 C35.135899,46.503272,34.629701,46.603019,34.177212,46.802719 C33.724516,47.002420,33.338595,47.272005,33.019033,47.611475 C32.699470,47.950945,32.456429,48.350346,32.290116,48.809678 C32.123387,49.269010,32.040438,49.758203,32.040438,50.277466 C32.040438,50.796521,32.123387,51.285922,32.290116,51.745254 C32.456429,52.204586,32.699470,52.603986,33.019033,52.943456 C33.338595,53.282927,33.724516,53.552512,34.177212,53.752212 C34.629701,53.951913,35.135899,54.051867,35.694977,54.051867 C36.240784,54.051867,36.746567,53.952120,37.212742,53.752212 C37.678710,53.552512,38.084539,53.282927,38.430853,52.943456 C38.776959,52.603986,39.049862,52.204586,39.249770,51.745254 C39.449261,51.285923,39.549217,50.796728,39.549217,50.277466 Z " style="fill: rgba(255, 255, 255, 1.000000); stroke-width: 0.000000px; stroke: rgba(0, 0, 0, 1.000000); " fill="#ffffff" stroke="#000000" stroke-width="0.000000" />
  <path d="M41.625851,49.618435 L46.558431,49.618435 L46.558431,50.696776 L41.625851,50.696776 L41.625851,49.618435 Z " style="fill: rgba(255, 255, 255, 1.000000); stroke-width: 0.000000px; stroke: rgba(0, 0, 0, 1.000000); " fill="#ffffff" stroke="#000000" stroke-width="0.000000" />
  <path d="M47.836265,52.534102 C48.089053,53.026821,48.461910,53.402789,48.954629,53.662420 C49.447141,53.922052,49.966196,54.051867,50.512417,54.051867 C50.765205,54.051867,51.018201,54.011844,51.271196,53.932006 C51.523984,53.852167,51.750643,53.739149,51.950136,53.592536 C52.149837,53.446130,52.312832,53.269863,52.439330,53.063319 C52.565620,52.856983,52.629076,52.620784,52.629076,52.354517 C52.629076,51.928573,52.492417,51.609010,52.219721,51.395831 C51.946818,51.183066,51.610666,51.016337,51.211265,50.896683 C50.811864,50.776821,50.372440,50.673757,49.893201,50.587075 C49.413961,50.500600,48.974537,50.367259,48.575136,50.187674 C48.175735,50.007881,47.839376,49.758411,47.566680,49.438849 C47.293569,49.119287,47.157118,48.666798,47.157118,48.080969 C47.157118,47.628480,47.250228,47.235715,47.436864,46.902674 C47.623086,46.570047,47.866127,46.293619,48.165781,46.073803 C48.465436,45.854195,48.801381,45.691199,49.174238,45.584609 C49.546680,45.478227,49.926173,45.424932,50.312509,45.424932 C51.071288,45.424932,51.726795,45.564702,52.279445,45.844241 C52.831680,46.123780,53.261150,46.563204,53.567440,47.162305 L52.489099,47.801430 C52.262648,47.375485,51.979791,47.052605,51.640320,46.832997 C51.300850,46.613181,50.858109,46.503480,50.312302,46.503480 C50.099122,46.503480,49.875989,46.536867,49.643316,46.603227 C49.410228,46.670001,49.200574,46.762904,49.014145,46.882766 C48.827510,47.002628,48.671150,47.155669,48.544860,47.342098 C48.418155,47.528734,48.355113,47.741499,48.355113,47.981222 C48.355113,48.394102,48.491357,48.700185,48.764468,48.899886 C49.037164,49.099586,49.373523,49.256153,49.772924,49.369172 C50.172325,49.482397,50.611542,49.578826,51.090781,49.658665 C51.570228,49.738503,52.009445,49.868319,52.408846,50.048112 C52.808247,50.227904,53.144191,50.487328,53.417302,50.826798 C53.689998,51.166268,53.826657,51.649033,53.826657,52.274678 C53.826657,52.753918,53.736657,53.170116,53.557072,53.522858 C53.377279,53.875807,53.130920,54.171936,52.818201,54.411660 C52.505274,54.651176,52.149214,54.830969,51.749814,54.950830 C51.350413,55.070692,50.930897,55.130623,50.491680,55.130623 C49.692878,55.130623,48.963961,54.977374,48.304929,54.671291 C47.645897,54.365208,47.136588,53.892397,46.777210,53.253480 L47.836265,52.534102 Z " style="fill: rgba(255, 255, 255, 1.000000); stroke-width: 0.000000px; stroke: rgba(0, 0, 0, 1.000000); " fill="#ffffff" stroke="#000000" stroke-width="0.000000" />
  <path d="M54.606175,50.277466 C54.606175,49.571982,54.726037,48.922904,54.965553,48.330231 C55.205277,47.738180,55.537903,47.225346,55.964055,46.792558 C56.390000,46.360185,56.902627,46.023618,57.501728,45.784102 C58.100830,45.544378,58.753019,45.424724,59.458917,45.424724 C60.164401,45.424724,60.813479,45.544586,61.405945,45.784102 C61.998203,46.023618,62.510830,46.359977,62.943617,46.792558 C63.375991,47.225346,63.712558,47.738180,63.952074,48.330231 C64.191797,48.922696,64.311452,49.571774,64.311452,50.277466 C64.311452,50.983157,64.191590,51.632235,63.952074,52.224493 C63.712350,52.816959,63.375991,53.329793,62.943617,53.762166 C62.510830,54.194954,61.998203,54.531106,61.405945,54.770622 C60.813479,55.010138,60.164401,55.130000,59.458917,55.130000 C58.753019,55.130000,58.101037,55.010138,57.501728,54.770622 C56.902627,54.530899,56.390000,54.194954,55.964055,53.762166 C55.537903,53.329793,55.205277,52.816959,54.965553,52.224493 C54.726035,51.632442,54.606175,50.983366,54.606175,50.277466 Z M55.804375,50.277466 C55.804375,50.796521,55.887324,51.285922,56.054052,51.745254 C56.220366,52.204586,56.463407,52.603986,56.782969,52.943456 C57.102532,53.282927,57.488453,53.552512,57.941149,53.752212 C58.393638,53.951913,58.899836,54.051867,59.458914,54.051867 C60.017992,54.051867,60.523983,53.952120,60.976679,53.752212 C61.429167,53.552512,61.815296,53.282927,62.134859,52.943456 C62.454421,52.603986,62.697047,52.204586,62.863776,51.745254 C63.030089,51.285922,63.113453,50.796728,63.113453,50.277466 C63.113453,49.758203,63.030089,49.269010,62.863776,48.809678 C62.697255,48.350346,62.454421,47.950945,62.134859,47.611475 C61.815296,47.272005,61.428960,47.002420,60.976679,46.802719 C60.523983,46.603019,60.017992,46.503272,59.458914,46.503272 C58.899836,46.503272,58.393637,46.603019,57.941149,46.802719 C57.488453,47.002420,57.102532,47.272005,56.782969,47.611475 C56.463407,47.950945,56.220366,48.350346,56.054052,48.809678 C55.887329,49.269011,55.804375,49.758204,55.804375,50.277466 Z " style="fill: rgba(255, 255, 255, 1.000000); stroke-width: 0.000000px; stroke: rgba(0, 0, 0, 1.000000); " fill="#ffffff" stroke="#000000" stroke-width="0.000000" />
  <path d="M73.597416,52.294378 C73.597416,52.467534,73.603845,52.677189,73.617324,52.923548 C73.630389,53.169908,73.640343,53.419585,73.647393,53.672373 C73.654029,53.925576,73.663983,54.161567,73.677462,54.381382 C73.690527,54.600991,73.697370,54.770829,73.697370,54.890691 L72.499168,54.890691 C72.485896,54.544792,72.475734,54.211751,72.469306,53.892189 C72.462463,53.572627,72.445873,53.366290,72.419329,53.273180 L72.359398,53.273180 C72.119675,53.779170,71.720274,54.215069,71.161195,54.581290 C70.601910,54.947304,69.949513,55.130415,69.204006,55.130415 C68.485043,55.130415,67.895896,55.017189,67.436771,54.790945 C66.977647,54.564700,66.618062,54.268571,66.358430,53.902143 C66.098799,53.536129,65.922117,53.113295,65.829214,52.634055 C65.735896,52.154816,65.689444,51.662304,65.689444,51.156313 L65.689444,45.664654 L66.887647,45.664654 L66.887647,51.096590 C66.887647,51.469447,66.920827,51.832350,66.987394,52.184885 C67.053960,52.537834,67.170297,52.853871,67.337025,53.133410 C67.503338,53.413157,67.736426,53.636083,68.035873,53.802396 C68.335527,53.969124,68.724767,54.052074,69.204214,54.052074 C69.643638,54.052074,70.059421,53.975553,70.452393,53.822511 C70.844951,53.669677,71.184421,53.436590,71.471011,53.123456 C71.756979,52.810737,71.983430,52.417972,72.149951,51.945161 C72.316264,51.472765,72.399628,50.916797,72.399628,50.277673 L72.399628,45.664447 L73.597831,45.664447 L73.597831,52.294378 L73.597416,52.294378 Z " style="fill: rgba(255, 255, 255, 1.000000); stroke-width: 0.000000px; stroke: rgba(0, 0, 0, 1.000000); " fill="#ffffff" stroke="#000000" stroke-width="0.000000" />
  <path d="M80.207648,46.742789 L77.571726,46.742789 L77.571726,52.753710 C77.571726,53.166591,77.684538,53.486153,77.911196,53.712397 C78.137441,53.938849,78.450367,54.051867,78.849768,54.051867 C79.076012,54.051867,79.305574,54.021798,79.538662,53.961867 C79.771542,53.901936,79.994468,53.825623,80.207648,53.732305 L80.307395,54.810646 C80.080943,54.890484,79.821312,54.963480,79.528501,55.030461 C79.235482,55.096821,78.975851,55.130208,78.749814,55.130208 C78.323455,55.130208,77.957648,55.066752,77.651565,54.940461 C77.345067,54.814171,77.098915,54.644332,76.912694,54.431153 C76.726266,54.218388,76.589814,53.968710,76.503339,53.682328 C76.416657,53.396153,76.373524,53.086544,76.373524,52.753710 L76.373524,46.742789 L74.376519,46.742789 L74.376519,45.664448 L76.373524,45.664448 L76.373524,43.008411 L77.571726,43.008411 L77.571726,45.664448 L80.207648,45.664448 L80.207648,46.742789 Z " style="fill: rgba(255, 255, 255, 1.000000); stroke-width: 0.000000px; stroke: rgba(0, 0, 0, 1.000000); " fill="#ffffff" stroke="#000000" stroke-width="0.000000" />
  <path d="M81.165920,39.793297 L82.364123,39.793297 L82.364123,47.281961 L82.404146,47.281961 C82.643662,46.776177,83.043271,46.340279,83.602349,45.973850 C84.161427,45.607836,84.813616,45.424726,85.559538,45.424726 C86.278501,45.424726,86.864123,45.537951,87.316819,45.764196 C87.769307,45.990855,88.125575,46.286984,88.385206,46.652997 C88.644837,47.019426,88.824630,47.441845,88.924376,47.921085 C89.024123,48.400532,89.074100,48.893251,89.074100,49.398827 L89.074100,54.890486 L87.875897,54.890486 L87.875897,49.458757 C87.875897,49.086107,87.842510,48.723204,87.776151,48.370254 C87.709376,48.017720,87.593040,47.701268,87.426727,47.421729 C87.259999,47.142190,87.027326,46.919263,86.727671,46.752743 C86.428224,46.586429,86.038777,46.503065,85.559538,46.503065 C85.120114,46.503065,84.703916,46.579793,84.311358,46.732628 C83.918593,46.885876,83.579123,47.118964,83.292948,47.431475 C83.006566,47.744402,82.780321,48.137374,82.614008,48.609770 C82.447487,49.082374,82.364331,49.638134,82.364331,50.277259 L82.364331,54.890277 L81.166128,54.890277 L81.166128,39.793297 L81.165920,39.793297 Z " style="fill: rgba(255, 255, 255, 1.000000); stroke-width: 0.000000px; stroke: rgba(0, 0, 0, 1.000000); " fill="#ffffff" stroke="#000000" stroke-width="0.000000" />
</g></svg>