<svg style="position: absolute; width: 0; height: 0; overflow: hidden;" version="1.1" xmlns="http://www.w3.org/2000/svg" xmlns:xlink="http://www.w3.org/1999/xlink">
<defs>
<symbol id="v-vumc" viewBox="0 0 39 32">
<title>vumc</title>
<path d="M17.545 2.073v-2.073h-17.451c-0.007 0.687-0.011 1.371-0.018 2.058 1.018 0.124 2.149 0.055 3.007 0.709 0.924 0.72 1.436 1.822 1.891 2.869 3.433 8.76 6.876 17.52 10.324 26.276 1.246-0.005 2.491-0.005 3.737-0.004l1.068 0.001c1.246 0.001 2.491 0.001 3.737-0.004 3.505-8.902 6.905-17.847 10.465-26.727 0.662-1.938 2.516-3.298 4.604-3.029v-2.149h-17.367c0.004 0.691 0.004 1.385 0 2.076 0.92 0.025 1.858-0.004 2.756 0.229 0.538 0.142 1.011 0.665 0.753 1.24-0.702 1.327-2.055 2.291-2.396 3.811-0.175 0.676 0.102 1.72 1.004 1.469 1.24-0.658 2.218-1.771 3.582-2.2 0.615 0.145 1.022 0.753 0.945 1.375-0.364 2.647-3.985 3.76-3.538 6.655 1.102 0.371 1.88-0.673 2.895-0.796 0.829 0.298 0.564 1.331 0.273 1.935-0.938 1.785-2.902 2.916-3.458 4.927-0.36 1.313 0.349 2.56 0.724 3.778-0.309-0.022-0.927-0.069-1.236-0.095-0.582-1.145-0.862-2.415-1.385-3.585-0.298-0.931-1.371-1.153-2.189-1.407-1.211-0.273-1.887 1.465-3.058 1.233-0.582-0.567 0.255-1.291 0.367-1.924 0.604-0.971 0.055-2.564 1.295-3.047 0.455 0.778 0.749 1.636 1.131 2.455 0.411 0.509 1.193 0.48 1.753 0.76-0.567-1.451-0.967-2.985-1.782-4.324-1.433-2.036-4.335-2.084-5.865-3.989-0.549-0.6-0.716-1.818 0.185-2.175 1.447-0.418 2.76 1.058 4.207 0.807 0.596-0.462 0.233-1.24-0.055-1.767-1.047-1.527-3.036-2.171-3.876-3.873-0.287-0.444-0.040-1.113 0.462-1.251 0.811-0.255 1.676-0.207 2.513-0.244zM13.902 18.098c-0.429-1.051 0.418-2.145 1.411-2.425 0.745-0.058 1.465 0.211 2.193 0.345-0.033 1.364-0.516 2.644-1.142 3.836-0.895-0.425-2.185-0.636-2.462-1.756z"></path>
</symbol>
<symbol id="v-redcap" viewBox="0 0 32 32">
<title>redcap</title>
<path d="M15.472 3.728c-0.208 0.224-0.864 0.512-1.632 0.736-3.152 0.896-5.456 2.72-6.8 5.344-0.656 1.296-0.704 1.52-0.768 2.88-0.032 0.816 0.048 2.336 0.176 3.392 0.4 3.264 0.4 3.264-2.272 7.264-1.264 1.872-2.352 3.616-2.432 3.856-0.352 0.992 0.432 1.76 1.472 1.456 0.592-0.176 2.064-1.6 2.064-2 0.016-0.448 0.256-0.592 0.736-0.4 0.256 0.096 1.504 0.496 2.784 0.896 4.832 1.488 7.824 1.040 10.4-1.536 1.168-1.184 3.664-4.8 4.64-6.736 0.464-0.928 0.8-1.392 1.248-1.68 0.688-0.464 2.752-1.232 4.288-1.616l1.056-0.272-0.096-0.608c-0.224-1.408-1.28-4.496-2.096-6.144-0.976-1.968-1.712-2.96-2.864-3.824-1.296-0.96-2.016-1.12-5.328-1.136-1.616-0.016-2.976-0.080-3.040-0.128-0.256-0.256-1.2-0.096-1.536 0.256z"></path>
</symbol>
<symbol id="v-pegasus" viewBox="0 0 32 32">
<title>pegasus</title>
<path d="M2.879 8.361c-0.461 0.068-1.35 0.222-1.965 0.308-1.555 0.256-1.384 0.837 0.239 0.837 0.786 0 2.017 0.359 2.956 0.854 0.889 0.461 1.811 0.854 2.068 0.854 0.598 0 0.581 0.273-0.051 0.906-0.342 0.342-0.513 1.213-0.513 2.7 0 1.248-0.154 2.205-0.342 2.205s-0.342 0.444-0.342 0.991c0 1.008-0.496 1.401-1.743 1.401-0.359 0-0.649-0.222-0.649-0.513 0-0.786-1.060-3.247-1.401-3.247-0.171 0-0.308 1.247-0.308 2.751 0 2.717 0.376 3.743 1.35 3.743 0.188 0 0.359 0.137 0.359 0.308 0 0.154 0.684 0.41 1.538 0.53 0.837 0.12 1.606 0.376 1.726 0.547 0.239 0.41 3.23 0.427 3.23 0.017 0-0.154 0.684-0.41 1.538-0.53 0.837-0.12 1.606-0.376 1.726-0.547 0.103-0.188 0.496-0.325 0.854-0.325 0.376 0 0.666-0.154 0.666-0.325 0-0.188 0.547-0.427 1.196-0.547 0.666-0.137 1.196-0.359 1.196-0.513 0-0.376-4.665-2.598-6.067-2.888-0.615-0.12-1.111-0.393-1.111-0.581 0-0.461 3.708-0.12 4.221 0.393 0.188 0.188 0.632 0.359 0.974 0.359s0.615 0.137 0.615 0.308c0 0.735 3.845 1.008 4.99 0.359 5.229-2.939 5.537-3.401 2.239-3.401-1.521 0-2.837-0.137-2.939-0.308-0.103-0.154-1.025-0.41-2.051-0.53-1.042-0.137-1.982-0.376-2.085-0.547-0.103-0.188-0.632-0.325-1.179-0.325s-1.077-0.154-1.196-0.342c-0.12-0.188-0.889-0.342-1.726-0.342-1.333 0-2.239-0.615-1.094-0.718 1.162-0.12 4.221 0.137 4.529 0.376 0.188 0.154 1.042 0.359 1.88 0.461 0.854 0.085 2.461 0.325 3.589 0.513 5.332 0.854 6.853 0.752 8.459-0.598 3.127-2.649 4.136-4.136 2.82-4.136-0.273 0-0.513 0.154-0.513 0.342s-0.837 0.342-1.88 0.342c-1.025 0-1.88 0.137-1.88 0.29 0 0.29-2.034 0.256-7.263-0.137-1.641-0.12-2.991-0.342-2.991-0.496 0-0.137-2.187-0.359-4.87-0.479-2.683-0.137-5.554-0.29-6.409-0.359-0.837-0.051-1.914-0.051-2.393 0.034zM25.813 12.377c-0.41 0.479-1.743 0.974-1.743 0.632 0-0.308 1.162-1.094 1.658-1.094 0.376-0.017 0.393 0.085 0.085 0.461zM19.627 16.666c0 0.444-1.863 1.401-2.632 1.35-0.564-0.034-0.564-0.051-0.017-0.205 0.325-0.085 0.598-0.291 0.598-0.461 0-0.188 0.308-0.325 0.684-0.325s0.684-0.154 0.684-0.342c0-0.188 0.154-0.342 0.342-0.342s0.342 0.154 0.342 0.325zM12.654 20.734c-0.325 0.513-3.982 1.811-4.614 1.641-0.342-0.085-0.273-0.154 0.222-0.188 0.427-0.017 0.769-0.188 0.769-0.359 0-0.188 0.547-0.427 1.196-0.547 0.666-0.137 1.196-0.359 1.196-0.513 0-0.256 1.060-0.632 1.316-0.461 0.068 0.051 0.017 0.239-0.085 0.427z"></path>
</symbol>
<symbol id="v-esmart" viewBox="0 0 32 32">
<title>esmart</title>
<path d="M13.267 29.954c-8.895-2.161-13.615-12.106-9.601-20.229 1.524-3.083 3.645-5.189 6.793-6.745 2.411-1.192 2.55-1.22 6.021-1.22s3.61 0.028 6.021 1.22c3.148 1.556 5.269 3.662 6.793 6.745 4.092 8.28-0.902 18.399-10.030 20.318-2.11 0.444-3.913 0.417-5.997-0.090zM21.617 24.304c1.705-0.845 2.018-1.407 1.315-2.368-0.437-0.598-0.485-0.595-2.169 0.149-4.429 1.957-9.269 0.071-9.791-3.814-0.216-1.608-0.151-1.622 7.712-1.627l6.364-0.004-0.166-2.068c-0.318-3.959-2.934-7.116-6.513-7.859-4.196-0.871-8.020 0.907-9.992 4.647-0.73 1.384-0.845 1.991-0.85 4.501-0.005 2.602 0.093 3.096 0.961 4.8 0.708 1.391 1.382 2.178 2.517 2.94 2.12 1.423 3.114 1.672 6.293 1.573 2.143-0.066 3.080-0.255 4.32-0.869zM10.76 14.229c-0.245-0.639 0.573-2.625 1.495-3.626 2.29-2.488 7.115-2.075 8.867 0.76 0.389 0.629 0.727 1.605 0.752 2.17l0.046 1.027-5.483 0.087c-4.753 0.076-5.509 0.020-5.677-0.418z"></path>
<path d="M12.8 29.567c-6.874-1.839-11.638-9.419-10.127-16.112 0.706-3.127 1.662-4.957 3.763-7.203 2.157-2.306 4.301-3.484 7.676-4.216 2.26-0.49 2.595-0.49 4.799 0.005 3.347 0.751 5.479 1.931 7.612 4.212 3.16 3.378 4.565 7.584 3.884 11.622-1.438 8.527-9.48 13.867-17.608 11.693zM20.96 24.933c1.497-0.658 2.72-1.576 2.72-2.040 0-0.233-0.272-0.759-0.605-1.169l-0.605-0.747-1.692 0.791c-1.268 0.593-2.224 0.791-3.82 0.79-2.691-0.001-4.367-0.984-5.433-3.186-1.157-2.389-1.089-2.413 6.957-2.413h6.885l-0.162-2.020c-0.424-5.288-3.866-8.631-8.886-8.631-3.784 0-6.813 1.973-8.433 5.492-0.524 1.138-0.682 2.106-0.684 4.199-0.003 2.338 0.123 2.977 0.897 4.553 1.035 2.108 2.574 3.507 4.86 4.418 1.282 0.511 2.141 0.613 4.32 0.511 1.496-0.070 3.152-0.317 3.68-0.549zM11.173 14.208c-0.36-0.434-0.305-0.739 0.361-1.993 1.088-2.051 2.505-2.934 4.705-2.934 2.314 0 3.759 0.73 4.732 2.39 0.908 1.549 1.010 2.577 0.283 2.856-0.278 0.107-2.565 0.194-5.081 0.194-3.804 0-4.646-0.086-5-0.512z"></path>
<path d="M11.973 29.134c-6.283-2.236-10.277-8.852-9.186-15.219 1.182-6.9 6.994-11.988 13.693-11.988s12.511 5.088 13.693 11.988c0.881 5.142-1.773 10.973-6.299 13.841-3.195 2.025-8.392 2.627-11.901 1.378zM21.183 24.965c1.697-0.645 2.824-1.471 2.805-2.055-0.006-0.193-0.352-0.767-0.768-1.275l-0.756-0.925-1.695 0.845c-3.985 1.986-9.112 0.213-9.349-3.232l-0.061-0.884 14.080-0.32-0.059-2.046c-0.117-4.058-2.792-7.679-6.427-8.697-2.854-0.8-6.536 0.051-8.926 2.062-2.236 1.881-3.478 5.86-2.927 9.374 0.344 2.193 0.948 3.428 2.454 5.015 2.812 2.962 7.291 3.786 11.628 2.138zM11.2 13.647c0-0.911 1.13-2.639 2.283-3.493 2.813-2.083 7.951 0.090 7.955 3.366l0.001 0.88h-10.24z"></path>
<path d="M13.92 29.569c-6.153-1.514-10.206-6.027-11.196-12.466-0.262-1.703 0.521-5.383 1.597-7.506 2.549-5.030 8.748-8.278 14.024-7.348 6.032 1.064 10.359 5.257 11.608 11.249 1.316 6.314-2.469 12.932-8.834 15.444-1.407 0.555-5.9 0.946-7.2 0.627zM21.44 25.055c2.828-1.301 3.184-2.161 1.596-3.865l-0.669-0.718-1.409 0.826c-1.977 1.159-4.425 1.368-6.299 0.54-1.691-0.748-3.237-2.583-3.084-3.66l0.105-0.738 13.92-0.172v-1.742c0-3.634-2.261-7.345-5.375-8.824-1.091-0.518-2.122-0.72-3.745-0.735-3.933-0.035-7.090 1.962-8.773 5.551-1.137 2.424-1.177 6.424-0.087 8.802 1.172 2.558 3.274 4.379 6.14 5.319 1.483 0.486 6.119 0.134 7.68-0.584zM11.555 14.109c-0.674-0.427 0.696-3.035 2.025-3.857 1.506-0.931 4.205-0.894 5.652 0.078 1.262 0.847 2.408 2.766 2.112 3.538-0.178 0.463-0.804 0.532-4.774 0.528-2.514-0.003-4.77-0.132-5.015-0.287z"></path>
<path d="M11.805 28.701c-2.608-1.094-3.943-1.995-5.393-3.643-7.165-8.14-2.621-20.748 8.142-22.591 4.060-0.695 8.652 0.915 11.651 4.087 6.371 6.736 4.514 17.442-3.732 21.521-2.264 1.12-2.664 1.211-5.655 1.292-2.779 0.075-3.464-0.016-5.013-0.666zM20.852 25.422c1.935-0.683 3.468-1.717 3.468-2.34 0-0.3-0.407-1.034-0.905-1.63l-0.905-1.084-1.718 0.856c-2.219 1.106-4.932 1.178-6.711 0.178-1.103-0.62-2.561-2.582-2.561-3.446 0-0.251 2.027-0.356 6.841-0.356 5.723 0 6.907-0.079 7.243-0.485 0.588-0.708 0.151-3.728-0.866-5.996-3.299-7.352-13.82-7.114-17.186 0.389-1.652 3.682-1.034 8.403 1.491 11.387 1.017 1.202 3.601 2.64 5.429 3.021 1.688 0.353 4.625 0.125 6.381-0.494zM11.52 13.487c0-1.742 2.636-3.886 4.779-3.887 2.323-0.001 4.821 1.972 4.821 3.809 0 0.651-0.14 0.671-4.8 0.671-4.459 0-4.8-0.042-4.8-0.593z"></path>
<path d="M13.28 28.996c-3.606-0.877-7.232-3.813-8.782-7.11-1.2-2.553-1.696-5.611-1.282-7.912 1.047-5.823 5.16-10.087 10.881-11.28 7.141-1.489 14.276 3.655 15.647 11.28 0.66 3.671-0.733 8.053-3.535 11.118-3.242 3.547-8.217 5.050-12.929 3.904zM21.648 25.309c0.907-0.397 1.968-1.061 2.358-1.476l0.709-0.755-0.682-1.103c-1.144-1.851-1.366-1.924-3.118-1.015-3.299 1.711-6.978 1.197-8.427-1.179-1.34-2.198-1.45-2.159 6.31-2.256l6.96-0.086 0.098-1.717c0.213-3.726-1.916-7.475-5.196-9.153-3.788-1.937-8.697-1.036-11.549 2.12-1.655 1.832-2.47 3.856-2.646 6.576-0.32 4.94 2.359 9.088 6.813 10.548 1.96 0.643 6.351 0.378 8.369-0.505zM11.759 13.893c-0.348-0.348 0.426-1.957 1.382-2.873 1.266-1.213 4.383-1.484 5.924-0.515 1.030 0.648 2.229 2.713 1.892 3.259-0.207 0.335-8.87 0.457-9.198 0.129z"></path>
<path d="M12.451 28.513c-4.716-1.509-8.033-5.443-8.959-10.627-0.468-2.621-0.1-4.899 1.26-7.799 2.379-5.073 8.36-8.229 13.723-7.241 5.714 1.053 9.836 5.179 11.009 11.019 0.706 3.518-0.654 8.088-3.246 10.899-3.548 3.849-8.914 5.308-13.788 3.749zM21.098 25.777c1.797-0.645 3.542-1.965 3.542-2.679 0-0.817-1.545-2.938-2.14-2.938-0.284 0-1.288 0.377-2.23 0.838-3.193 1.562-7.139 0.53-8.059-2.108l-0.338-0.97h6.824c5.723 0 6.889-0.079 7.229-0.488 0.683-0.822 0.158-4.477-0.972-6.773-1.111-2.257-2.296-3.383-4.747-4.509-1.49-0.685-2.052-0.769-4.324-0.65-4.181 0.219-7.042 2.141-8.703 5.845-2.807 6.259 0.401 13.268 6.814 14.887 1.623 0.41 5.36 0.17 7.103-0.456zM11.84 13.487c0-0.669 1.553-2.499 2.566-3.025 1.3-0.674 3.37-0.541 4.652 0.299 0.787 0.516 1.741 1.974 1.741 2.662 0 0.219-1.565 0.336-4.48 0.336-2.464 0-4.48-0.123-4.48-0.273z"></path>
</symbol>
<symbol id="v-researchmatch" viewBox="0 0 32 32">
<title>researchmatch</title>
<path d="M3.553 26.44c-0.257-0.309-0.34-2.754-0.279-8.24l0.086-7.8 2.323-0.094c2.25-0.091 2.333-0.068 2.642 0.747l0.32 0.841 0.967-0.814c1.064-0.895 3.059-1.417 3.547-0.928 0.171 0.171 0.268 1.362 0.216 2.646l-0.095 2.335-1.394 0.411c-2.824 0.832-3.566 2.488-3.566 7.959 0 3.405 0.021 3.378-2.707 3.378-1.047 0-1.834-0.168-2.060-0.44zM14.113 26.44c-0.257-0.309-0.339-2.754-0.279-8.24l0.086-7.8 0.746-0.106c0.417-0.059 1.296 0.259 1.993 0.72 1.49 0.986 1.425 0.98 2.492 0.222 3.378-2.402 8.2-1.118 9.275 2.469 0.517 1.727 0.509 12.271-0.010 12.791-0.398 0.398-3.342 0.53-4.23 0.19-0.428-0.164-0.511-0.922-0.538-4.88-0.018-2.577-0.132-5.044-0.253-5.481-0.294-1.057-1.593-1.765-2.718-1.483-1.443 0.362-1.797 1.746-1.797 7.033 0 5.229 0.121 5.005-2.707 5.005-1.047 0-1.834-0.168-2.060-0.44zM3.945 8.834c-0.705-0.606-0.891-1.040-0.891-2.078 0-1.783 0.958-2.741 2.741-2.741 2.604 0 3.755 2.804 1.909 4.65-1.17 1.17-2.525 1.231-3.76 0.169zM14.994 9.128c-1.932-1.079-1.719-4.104 0.35-4.961 2.011-0.833 4.168 1.046 3.692 3.216-0.383 1.742-2.449 2.634-4.041 1.745zM25.074 9.283c-0.919-0.371-1.714-1.559-1.714-2.563 0-1.095 0.724-2.064 1.907-2.555 3.058-1.267 5.177 3.442 2.234 4.964-1.019 0.527-1.435 0.553-2.427 0.153z"></path>
<path d="M3.553 26.44c-0.257-0.309-0.34-2.754-0.279-8.24l0.086-7.8 2.323-0.094c2.25-0.091 2.333-0.068 2.642 0.747l0.32 0.841 0.967-0.814c1.064-0.895 3.059-1.417 3.547-0.928 0.171 0.171 0.268 1.362 0.216 2.646l-0.095 2.335-1.394 0.411c-2.824 0.832-3.566 2.488-3.566 7.959 0 3.405 0.021 3.378-2.707 3.378-1.047 0-1.834-0.168-2.060-0.44zM14.307 26.040c-0.125-0.125-0.227-3.591-0.227-7.704 0-6.168 0.080-7.507 0.455-7.651 0.533-0.204 1.643 0.319 2.679 1.264 0.602 0.548 0.833 0.6 1.28 0.283 2.523-1.785 5.34-2.196 7.414-1.083 1.979 1.061 2.378 2.372 2.52 8.278 0.069 2.855 0.032 5.563-0.082 6.017-0.198 0.791-0.291 0.821-2.197 0.73l-1.99-0.095-0.16-5.229c-0.153-5.016-0.191-5.254-0.915-5.84-0.753-0.609-2.089-0.789-3.067-0.413-1.043 0.4-1.296 1.534-1.457 6.522l-0.16 4.96-1.933 0.094c-1.063 0.051-2.035-0.009-2.16-0.133zM3.945 8.834c-0.705-0.606-0.891-1.040-0.891-2.078 0-1.783 0.958-2.741 2.741-2.741 2.604 0 3.755 2.804 1.909 4.65-1.17 1.17-2.525 1.231-3.76 0.169zM14.72 8.32c-0.356-0.356-0.64-1.067-0.64-1.6 0-1.891 2.142-2.881 3.769-1.742 0.915 0.641 0.989 2.671 0.126 3.452-0.805 0.729-2.472 0.672-3.255-0.11zM24.53 8.375c-0.792-0.876-0.69-2.786 0.182-3.397 1.627-1.139 3.769-0.149 3.769 1.742 0 0.533-0.284 1.244-0.64 1.6-0.817 0.817-2.594 0.847-3.31 0.055z"></path>
<path d="M3.873 26.12c-0.256-0.309-0.34-2.671-0.279-7.92l0.086-7.48h2.080c2.031 0 2.082 0.021 2.181 0.88 0.109 0.95 0.83 1.192 1.141 0.384 0.242-0.63 2.97-1.854 3.596-1.613 0.364 0.14 0.45 0.667 0.377 2.313l-0.095 2.132-1.465 0.426c-2.691 0.783-3.46 2.445-3.481 7.525-0.016 3.812-0.004 3.794-2.401 3.794-0.776 0-1.534-0.192-1.74-0.44zM14.307 26.040c-0.125-0.125-0.227-3.591-0.227-7.704 0-6.168 0.080-7.507 0.455-7.651 0.533-0.204 1.643 0.319 2.679 1.264 0.602 0.548 0.833 0.6 1.28 0.283 2.523-1.785 5.34-2.196 7.414-1.083 1.979 1.061 2.378 2.372 2.52 8.278 0.069 2.855 0.032 5.563-0.082 6.017-0.198 0.791-0.291 0.821-2.197 0.73l-1.99-0.095-0.16-5.229c-0.153-5.016-0.191-5.254-0.915-5.84-0.753-0.609-2.089-0.789-3.067-0.413-1.043 0.4-1.296 1.534-1.457 6.522l-0.16 4.96-1.933 0.094c-1.063 0.051-2.035-0.009-2.16-0.133zM4.285 8.531c-1.602-1.378-0.928-3.697 1.227-4.223 0.703-0.172 1.060-0.025 1.84 0.755 1.215 1.215 1.224 2.091 0.033 3.282-1.131 1.131-1.945 1.18-3.1 0.186zM14.72 8.32c-0.356-0.356-0.64-1.067-0.64-1.6 0-1.891 2.142-2.881 3.769-1.742 0.915 0.641 0.989 2.671 0.126 3.452-0.805 0.729-2.472 0.672-3.255-0.11zM24.53 8.375c-0.792-0.876-0.69-2.786 0.182-3.397 1.627-1.139 3.769-0.149 3.769 1.742 0 0.533-0.284 1.244-0.64 1.6-0.817 0.817-2.594 0.847-3.31 0.055z"></path>
<path d="M3.873 26.12c-0.256-0.309-0.34-2.671-0.279-7.92l0.086-7.48h2.080c2.031 0 2.082 0.021 2.181 0.88 0.109 0.95 0.83 1.192 1.141 0.384 0.242-0.63 2.97-1.854 3.596-1.613 0.364 0.14 0.45 0.667 0.377 2.313l-0.095 2.132-1.465 0.426c-2.691 0.783-3.46 2.445-3.481 7.525-0.016 3.812-0.004 3.794-2.401 3.794-0.776 0-1.534-0.192-1.74-0.44zM14.72 18.577c0-8.23-0.007-8.207 2.061-6.391l1.123 0.986 1.457-1.046c2.776-1.993 6.671-1.504 7.92 0.994 0.471 0.944 0.56 2.042 0.56 6.977l0 5.857-3.36-0.193-0.060-4.46c-0.033-2.453-0.145-4.797-0.248-5.208-0.682-2.719-5.135-2.721-5.77-0.003-0.091 0.391-0.201 2.727-0.244 5.191l-0.078 4.48-3.36 0.193zM4.285 8.531c-1.602-1.378-0.928-3.697 1.227-4.223 0.703-0.172 1.060-0.025 1.84 0.755 1.215 1.215 1.224 2.091 0.033 3.282-1.131 1.131-1.945 1.18-3.1 0.186zM14.898 7.929c-0.67-0.957-0.627-1.72 0.142-2.489 1.25-1.25 3.2-0.437 3.2 1.336 0 1.718-2.373 2.536-3.342 1.153zM24.85 8.055c-1.684-1.861 0.897-4.388 2.67-2.615 0.769 0.769 0.812 1.532 0.142 2.489-0.615 0.878-2.073 0.943-2.812 0.126z"></path>
<path d="M3.873 26.12c-0.256-0.309-0.34-2.671-0.279-7.92l0.086-7.48h2.080c2.031 0 2.082 0.021 2.181 0.88 0.109 0.95 0.83 1.192 1.141 0.384 0.242-0.63 2.97-1.854 3.596-1.613 0.364 0.14 0.45 0.667 0.377 2.313l-0.095 2.132-1.465 0.426c-2.691 0.783-3.46 2.445-3.481 7.525-0.016 3.812-0.004 3.794-2.401 3.794-0.776 0-1.534-0.192-1.74-0.44zM4.285 8.531c-1.602-1.378-0.928-3.697 1.227-4.223 0.703-0.172 1.060-0.025 1.84 0.755 1.215 1.215 1.224 2.091 0.033 3.282-1.131 1.131-1.945 1.18-3.1 0.186z"></path>
<path d="M3.99 25.85c-0.090-0.233-0.124-3.661-0.076-7.617l0.086-7.193 3.68-0.192v0.957c0 1.388 0.555 1.522 1.708 0.41 1.078-1.040 2.635-1.778 3.119-1.479 0.161 0.1 0.293 1.021 0.293 2.047v1.866l-1.088 0.204c-0.598 0.112-1.465 0.501-1.926 0.864-1.496 1.177-1.881 2.384-2.081 6.523l-0.185 3.84-1.684 0.097c-1.175 0.068-1.733-0.031-1.846-0.327zM4.275 8.144c-0.635-0.635-0.769-1.008-0.604-1.68 0.116-0.475 0.382-1.034 0.591-1.243s0.768-0.474 1.243-0.591c0.672-0.165 1.045-0.031 1.68 0.604 1.026 1.026 1.036 1.935 0.031 2.94s-1.914 0.996-2.94-0.031z"></path>
<path d="M4.16 18.56v-7.36h3.2v1.13c0 1.606 0.803 1.814 1.848 0.479 0.675-0.862 2.39-1.929 3.102-1.929 0.094 0 0.17 0.792 0.17 1.76 0 1.143-0.133 1.76-0.379 1.76-1.104 0-3.077 1.375-3.787 2.64-0.654 1.164-0.784 1.9-0.898 5.12l-0.134 3.76h-3.121zM4.48 8c-1.131-1.131-0.625-2.656 1.012-3.050 0.626-0.151 1.030-0.028 1.52 0.463 0.841 0.841 0.851 1.765 0.028 2.588-0.352 0.352-0.928 0.64-1.28 0.64s-0.928-0.288-1.28-0.64z"></path>
</symbol>
<symbol id="v-starbrite" viewBox="0 0 32 32">
<title>starbrite</title>
<path d="M14.018 28.454c-5.341-0.781-10.024-5.527-10.779-10.925-1.242-8.875 6.056-16.173 14.93-14.93 5.481 0.767 10.145 5.432 10.912 10.912 1.25 8.932-6.126 16.249-15.063 14.943zM16.143 18.569c0.185 0.005 0.902 0.436 1.592 0.958s1.3 0.904 1.355 0.849c0.055-0.055-0.072-0.924-0.284-1.931l-0.384-1.83 2.857-2.508-1.494-0.014c-2.131-0.019-2.411-0.203-2.996-1.964-0.559-1.684-0.908-1.788-1.256-0.373-0.453 1.843-1.020 2.323-2.741 2.323-0.876 0-1.593 0.072-1.593 0.161s0.588 0.692 1.308 1.342c1.104 0.997 1.278 1.321 1.12 2.079-0.103 0.494-0.284 1.36-0.401 1.925l-0.213 1.027 1.396-1.027c0.768-0.565 1.548-1.023 1.733-1.018z"></path>
<path d="M12.808 27.967c-2.292-0.616-4.058-1.675-5.889-3.532-7.223-7.327-3.141-19.715 7.125-21.624 8.467-1.575 16.4 6.359 14.825 14.825-1.413 7.6-8.724 12.303-16.061 10.331zM14.537 19.831c0.691-0.523 1.385-0.951 1.542-0.951s0.933 0.446 1.725 0.991c0.792 0.545 1.525 0.906 1.629 0.802s0.022-0.746-0.183-1.428c-0.649-2.165-0.5-2.709 1.056-3.876 0.785-0.588 1.353-1.191 1.261-1.339s-0.942-0.27-1.889-0.27c-1.88 0-1.995-0.091-2.72-2.151-0.264-0.75-0.624-1.38-0.8-1.398s-0.615 0.736-0.975 1.677l-0.655 1.712-1.985 0.095c-1.092 0.052-1.985 0.189-1.985 0.303s0.684 0.809 1.519 1.544l1.519 1.337-0.525 1.961c-0.61 2.276-0.41 2.411 1.465 0.992z"></path>
<path d="M12.241 27.71c-3.215-1.046-6.078-3.615-7.692-6.901-0.786-1.6-0.869-2.108-0.869-5.29 0-3.247 0.073-3.669 0.941-5.44 1.201-2.45 3.648-4.897 6.099-6.099 1.771-0.868 2.193-0.941 5.44-0.941s3.669 0.073 5.44 0.941c2.45 1.201 4.897 3.648 6.099 6.099 0.868 1.771 0.941 2.193 0.941 5.44s-0.073 3.669-0.941 5.44c-1.201 2.449-3.65 4.899-6.088 6.090-1.639 0.8-2.342 0.945-4.96 1.018-1.949 0.054-3.541-0.075-4.41-0.357zM14.24 20.16c0.767-0.528 1.617-0.96 1.888-0.96s1.143 0.458 1.938 1.018c0.794 0.56 1.524 0.938 1.622 0.841s-0.071-1.072-0.375-2.166l-0.553-1.988 3.48-3.118-1.92-0.019c-1.056-0.010-2.099-0.133-2.318-0.272s-0.662-1.029-0.984-1.976c-0.322-0.948-0.728-1.771-0.901-1.829s-0.565 0.688-0.871 1.658c-0.644 2.042-1.159 2.41-3.384 2.41-0.892 0-1.621 0.117-1.621 0.261s0.641 0.741 1.424 1.327c0.783 0.587 1.497 1.258 1.587 1.492s-0.046 1.112-0.301 1.953c-0.495 1.633-0.581 2.328-0.288 2.328 0.1 0 0.81-0.432 1.578-0.96z"></path>
<path d="M12.428 27.565c-2.472-0.817-3.787-1.685-5.666-3.74-2.247-2.459-3.054-4.652-3.054-8.305 0-4.030 0.819-6.025 3.623-8.829 2.439-2.439 4.661-3.467 8.053-3.727 7.404-0.568 13.9 5.929 13.333 13.333-0.26 3.393-1.288 5.614-3.727 8.053-1.577 1.577-2.594 2.294-4.029 2.843-2.64 1.008-6.145 1.162-8.532 0.373zM14.263 20.32c0.866-0.616 1.7-1.12 1.853-1.12s0.988 0.521 1.856 1.158c0.868 0.637 1.67 1.066 1.783 0.954s-0.020-1.145-0.295-2.293l-0.5-2.088 1.568-1.322c0.862-0.727 1.517-1.476 1.455-1.665s-1.038-0.415-2.168-0.503l-2.055-0.16-0.674-1.905c-0.597-1.687-1.406-2.731-1.406-1.814 0 0.184-0.298 1.132-0.663 2.107l-0.663 1.772h-2.038c-1.121 0-2.119 0.131-2.218 0.291s0.569 0.936 1.484 1.724l1.664 1.434-0.376 1.556c-0.207 0.856-0.468 1.88-0.581 2.276-0.282 0.991 0.136 0.906 1.972-0.4z"></path>
<path d="M12.16 27.329c-3.626-1.3-6.729-4.489-7.859-8.075-0.833-2.644-0.531-6.698 0.681-9.157 1.188-2.409 3.318-4.547 5.755-5.777 1.77-0.893 2.148-0.96 5.423-0.96s3.652 0.067 5.423 0.96c2.423 1.223 4.555 3.354 5.777 5.777 0.893 1.77 0.96 2.148 0.96 5.423s-0.067 3.652-0.96 5.423c-1.229 2.435-3.366 4.565-5.777 5.759-1.627 0.805-2.343 0.956-4.943 1.043-2.202 0.073-3.437-0.041-4.48-0.415zM14.080 20.64c0.839-0.616 1.721-1.12 1.96-1.12s1.195 0.524 2.126 1.165c0.93 0.641 1.788 1.068 1.907 0.949s-0.029-1.134-0.329-2.257c-0.299-1.123-0.544-2.169-0.544-2.324s0.72-0.831 1.6-1.502c2.208-1.684 2.114-2.111-0.461-2.111-2.296 0-2.28 0.013-3.219-2.535-0.352-0.955-0.806-1.79-1.009-1.857-0.212-0.069-0.661 0.759-1.057 1.948-0.379 1.138-0.909 2.153-1.178 2.256s-1.246 0.188-2.17 0.188c-0.924 0-1.786 0.105-1.915 0.234s0.574 0.957 1.562 1.84l1.796 1.606-0.492 1.6c-0.508 1.654-0.646 3.040-0.302 3.040 0.108 0 0.884-0.504 1.723-1.12z"></path>
<path d="M13.12 27.382c-4.507-1.254-7.627-4.422-8.845-8.982-1.069-4 0.189-8.481 3.237-11.528s7.528-4.305 11.528-3.237c4.634 1.238 7.767 4.371 9.005 9.005 2.331 8.727-6.213 17.166-14.925 14.742zM14.491 20.554l1.531-1.105 1.967 1.321c1.194 0.802 2.083 1.206 2.261 1.027s0.092-0.986-0.218-2.055c-0.763-2.623-0.692-2.896 1.097-4.261 2.189-1.669 2.020-2.159-0.812-2.361l-2.237-0.16-0.763-2.175c-0.964-2.748-1.495-2.727-2.436 0.095l-0.693 2.080-2.15 0.095c-2.427 0.107-3.077 0.694-1.86 1.68 0.377 0.305 1.136 0.934 1.686 1.397l1.001 0.842-0.543 2.215c-0.798 3.257-0.615 3.372 2.168 1.365z"></path>
<path d="M12.96 27.090c-3.703-1.229-6.069-3.263-7.632-6.562-0.899-1.897-1.008-2.441-1.008-5.008s0.11-3.111 1.008-5.008c1.28-2.701 3.122-4.543 5.823-5.823 1.897-0.899 2.441-1.008 5.008-1.008s3.111 0.11 5.008 1.008c2.701 1.28 4.543 3.122 5.823 5.823 0.899 1.897 1.008 2.441 1.008 5.008s-0.11 3.111-1.008 5.008c-1.98 4.18-5.751 6.694-10.327 6.885-1.436 0.060-2.946-0.072-3.704-0.323zM14.163 21.12c0.983-0.704 1.886-1.28 2.006-1.28s0.743 0.411 1.385 0.914c2.938 2.302 3.627 2.064 2.779-0.96-0.309-1.1-0.625-2.165-0.702-2.367s0.658-0.983 1.634-1.736c0.993-0.766 1.775-1.624 1.775-1.947 0-0.573-0.227-0.628-4.294-1.042-0.453-0.046-0.796-0.609-1.307-2.142-0.954-2.865-1.646-2.856-2.661 0.035l-0.742 2.115-2.267 0.19c-3.221 0.27-3.346 0.574-1.070 2.604l1.899 1.693-0.573 2.119c-0.549 2.028-0.524 3.083 0.074 3.083 0.153 0 1.082-0.576 2.065-1.28z"></path>
</symbol>
</defs>
</svg>
